<?xml version="1.0" standalone="no"?>
<!DOCTYPE svg PUBLIC "-//W3C//DTD SVG 1.1//EN" "http://www.w3.org/Graphics/SVG/1.1/DTD/svg11.dtd" >
<svg>
<metadata>
Created by FontForge 20110222 at Wed Jun  4 16:16:08 2014
 By deploy user
Copyright (c) 1988, 1990, 1993, 2003 Linotype Library GmbH, www.linotype.com. All rights reserved. Copyright (c) 1988, 1990, 1993 Adobe Systems Incorporated. All Rights Reserved.
</metadata>
<defs>
<font id="HelveticaNeueLTPro-MdCnO" horiz-adv-x="222" >
  <font-face 
    font-family="HelveticaNeueLT Pro 67 MdCn"
    font-weight="500"
    font-style="italic"
    font-stretch="normal"
    units-per-em="1000"
    panose-1="2 11 6 6 3 5 2 3 2 4"
    ascent="714"
    descent="-286"
    x-height="538"
    cap-height="714"
    bbox="-170 -223 1077.19 950"
    underline-thickness="50"
    underline-position="-50"
    slope="-12"
    unicode-range="U+000D-FB02"
  />
<missing-glyph horiz-adv-x="512" 
d="M222 117h56v67h-56v-67zM225 234h46q0 52 6 72q6 19 43 52q37 34 50 60t13 60q0 59 -35 95t-89 36q-56 0 -92 -34t-43 -103l50 -8q11 95 82 95q31 0 53.5 -24.5t22.5 -60.5q0 -20 -9.5 -37t-40.5 -46q-31 -31 -46 -59q-13 -25 -13 -81zM462 50h-412v617h412v-617z
M512 718h-512v-718h512v718z" />
    <glyph glyph-name="IJ" unicode="IJ" horiz-adv-x="669" 
d="M54 0l148 714h114l-148 -714h-114zM285 215h108l-7 -35q-24 -108 53 -108q22 0 39 9t26.5 19t18.5 34t12 36t10 44l104 500h114l-108 -517q-43 -211 -235 -211q-181 0 -144 183z" />
    <glyph glyph-name="ij" unicode="ij" horiz-adv-x="449" 
d="M184 614l23 108h108l-23 -108h-108zM57 0l111 538h108l-111 -538h-108zM434 722h108l-23 -108h-108zM395 538h108l-119 -573q-17 -81 -58.5 -115t-113.5 -34q-24 0 -46 3l17 83h25q31 0 46 15.5t24 57.5z" />
    <glyph glyph-name="napostrophe" unicode="&#x22;n" horiz-adv-x="511" 
d="M82 0l111 538h102l-13 -63h3q59 77 154 77q136 0 104 -146l-84 -406h-108l76 369q11 53 -1.5 75t-53.5 22q-36 0 -66 -27.5t-41 -77.5l-75 -361h-108zM183 714l20 99h96l-18 -86q-9 -43 -34.5 -62.5t-69.5 -24.5l7 33q33 8 44 41h-45z" />
    <glyph glyph-name="fi" unicode="fi" horiz-adv-x="500" 
d="M85 0l95 458h-75l16 80h75l11 50q15 73 55.5 103.5t109.5 30.5q34 0 58 -3l-17 -83h-30q-58 0 -69 -51l-10 -47h88l-16 -80h-88l-95 -458h-108zM462 614l23 108h108l-23 -108h-108zM335 0l111 538h108l-111 -538h-108z" />
    <glyph glyph-name="fl" unicode="fl" horiz-adv-x="500" 
d="M85 0l95 458h-75l16 80h75l11 50q15 73 55.5 103.5t109.5 30.5q34 0 58 -3l-17 -83h-30q-58 0 -69 -51l-10 -47h88l-16 -80h-88l-95 -458h-108zM335 0l148 714h108l-148 -714h-108z" />
    <glyph glyph-name=".notdef" horiz-adv-x="512" 
d="M222 117h56v67h-56v-67zM225 234h46q0 52 6 72q6 19 43 52q37 34 50 60t13 60q0 59 -35 95t-89 36q-56 0 -92 -34t-43 -103l50 -8q11 95 82 95q31 0 53.5 -24.5t22.5 -60.5q0 -20 -9.5 -37t-40.5 -46q-31 -31 -46 -59q-13 -25 -13 -81zM462 50h-412v617h412v-617z
M512 718h-512v-718h512v718z" />
    <glyph glyph-name=".null" horiz-adv-x="500" 
 />
    <glyph glyph-name=".null" horiz-adv-x="500" 
 />
    <glyph glyph-name="nonmarkingreturn" horiz-adv-x="333" 
 />
    <glyph glyph-name="CR" unicode="&#xd;" horiz-adv-x="0" 
 />
    <glyph glyph-name="space" unicode=" " horiz-adv-x="240" 
 />
    <glyph glyph-name="exclam" unicode="!" horiz-adv-x="278" 
d="M82 0l23 114h114l-23 -114h-114zM138 192l45 296l47 226h114l-47 -226l-79 -296h-80z" />
    <glyph glyph-name="quotedbl" unicode="&#x22;" horiz-adv-x="426" 
d="M164 428l60 286h86l-60 -286h-86zM352 428l60 286h86l-60 -286h-86z" />
    <glyph glyph-name="numbersign" unicode="#" horiz-adv-x="480" 
d="M38 200l15 74h97l51 146h-88l15 74h98l70 200h83l-70 -200h106l70 200h83l-70 -200h87l-15 -74h-97l-51 -146h88l-15 -74h-98l-69 -200h-83l69 200h-106l-69 -200h-83l69 200h-87zM233 274h106l51 146h-106z" />
    <glyph glyph-name="dollar" unicode="$" horiz-adv-x="480" 
d="M195 -100l18 86q-164 8 -164 140q0 35 8 72l3 16h114l-3 -16q-12 -57 1.5 -87.5t57.5 -38.5l49 232l-38 15q-74 30 -99.5 74t-9.5 119q18 86 83.5 141t147.5 55l14 70h44l-14 -70q54 0 90 -19t48.5 -46.5t17 -59.5t-4.5 -59l-2 -14h-114l2 14q18 89 -55 98l-46 -221
l58 -22q69 -26 93.5 -69.5t9.5 -114.5q-41 -197 -247 -209l-18 -86h-44zM302 418l43 204q-34 -3 -61 -28.5t-36 -71.5q-16 -70 54 -104zM319 287l-45 -215q45 6 74.5 35t36.5 65q11 49 -5 74.5t-61 40.5z" />
    <glyph glyph-name="percent" unicode="%" horiz-adv-x="759" 
d="M662 370q65 0 92 -43.5t6 -148.5q-23 -105 -67.5 -148.5t-109.5 -43.5q-138 0 -97 192q37 192 176 192zM320 708q138 0 97 -192q-23 -105 -67.5 -148.5t-109.5 -43.5q-138 0 -97 192q23 105 67.5 148.5t109.5 43.5zM650 308q-30 0 -46.5 -29t-31.5 -101
q-16 -70 -11.5 -100t34.5 -30t46.5 29t32.5 101q15 70 10.5 100t-34.5 30zM644 708h77l-469 -722h-75zM307 646q-30 0 -46.5 -29t-31.5 -101q-16 -70 -11 -100t35 -30t46 28.5t32 101.5q15 70 10.5 100t-34.5 30z" />
    <glyph glyph-name="ampersand" unicode="&#x26;" horiz-adv-x="574" 
d="M285 336l-24 -18q-78 -53 -93 -127q-10 -48 19 -81t79 -33q59 0 122 55zM342 458l30 23q63 52 71 92q12 67 -54 67q-26 0 -50.5 -15t-29.5 -47q-10 -44 21 -99zM377 392l88 -176q38 46 51 109l3 14h90l-2 -9q-8 -39 -33.5 -93.5t-67.5 -100.5l69 -136h-121l-31 61
q-98 -75 -195 -75q-47 0 -82.5 13t-53 34.5t-28.5 47.5t-9.5 52.5t4.5 49.5q22 110 138 187l52 34l-18 40q-31 72 -22 117q16 74 71.5 113.5t130.5 39.5q24 0 46.5 -6.5t45.5 -21t33 -45t2 -72.5q-19 -86 -118 -150z" />
    <glyph glyph-name="quotesingle" unicode="'" horiz-adv-x="240" 
d="M165 428l60 286h86l-60 -286h-86z" />
    <glyph glyph-name="parenleft" unicode="(" horiz-adv-x="259" 
d="M332 714h75q-155 -193 -207 -449q-26 -108 -22.5 -233.5t42.5 -215.5h-77q-46 85 -61 195t10 254q26 130 91.5 247.5t148.5 201.5z" />
    <glyph glyph-name="parenright" unicode=")" horiz-adv-x="259" 
d="M36 -184h-74q153 191 207 449q26 108 21.5 233.5t-42.5 215.5h77q46 -86 61.5 -194.5t-9.5 -254.5q-26 -129 -92 -246.5t-149 -202.5z" />
    <glyph glyph-name="asterisk" unicode="*" horiz-adv-x="370" 
d="M300 714h68l-26 -124l120 43l9 -66l-120 -33l56 -103l-65 -43l-54 105l-96 -105l-47 43l98 103l-110 33l37 66l104 -44z" />
    <glyph glyph-name="plus" unicode="+" horiz-adv-x="600" 
d="M318 296l44 210h86l-44 -210h210l-18 -86h-210l-43 -210h-86l43 210h-210l18 86h210z" />
    <glyph glyph-name="comma" unicode="," horiz-adv-x="240" 
d="M63 0l27 132h114l-27 -132q-14 -65 -48 -103.5t-99 -50.5l13 58q52 13 66 81l4 15h-50z" />
    <glyph glyph-name="hyphen" unicode="-" horiz-adv-x="352" 
d="M94 238l21 102h262l-21 -102h-262z" />
    <glyph glyph-name="period" unicode="." horiz-adv-x="240" 
d="M63 0l27 132h114l-27 -132h-114z" />
    <glyph glyph-name="slash" unicode="/" horiz-adv-x="296" 
d="M-12 -14l380 742h89l-381 -742h-88z" />
    <glyph glyph-name="zero" unicode="0" horiz-adv-x="480" 
d="M100 347q40 198 110 279.5t177 81.5q53 0 87 -18t53.5 -59t18.5 -111.5t-22 -172.5q-43 -199 -111.5 -280t-175.5 -81q-53 0 -87.5 18t-54 59t-18.5 111.5t23 172.5zM214 347q-34 -154 -26 -217.5t65 -63.5t90.5 61.5t66.5 219.5q33 154 25 217.5t-65 63.5
q-58 0 -90.5 -61t-65.5 -220z" />
    <glyph glyph-name="one" unicode="1" horiz-adv-x="480" 
d="M321 0h-114l106 514h-147l16 74h11q143 0 189 106l3 14h83z" />
    <glyph glyph-name="two" unicode="2" horiz-adv-x="480" 
d="M466 96l-19 -96h-414q15 72 49 130.5t74 93.5t85.5 70t84.5 63t70 70.5t42 93.5q20 107 -66 107q-40 0 -68 -23.5t-40.5 -53t-21.5 -71.5h-108q47 228 257 228q102 0 139.5 -52.5t20.5 -136.5q-13 -66 -48 -117t-79 -85t-89 -64t-88.5 -70t-67.5 -87h287z" />
    <glyph glyph-name="three" unicode="3" horiz-adv-x="480" 
d="M71 197h108q-5 -25 -5 -47q0 -84 75 -84q97 0 126 127q15 68 -5 100t-83 32h-44l17 80h41q101 0 127 121q9 42 -5.5 72t-55.5 30q-48 0 -76.5 -35t-39.5 -89h-108q43 204 247 204q35 0 64 -8.5t55 -29t33.5 -55.5t-0.5 -88q-13 -57 -52.5 -102t-92.5 -53l-1 -3
q56 -5 83 -48t12 -116q-45 -219 -261 -219q-203 0 -159 211z" />
    <glyph glyph-name="four" unicode="4" horiz-adv-x="480" 
d="M325 250l61 292h-2l-220 -292h161zM54 159l20 98l339 451h116l-96 -458h77l-18 -91h-77l-33 -159h-108l33 159h-253z" />
    <glyph glyph-name="five" unicode="5" horiz-adv-x="480" 
d="M68 176l3 15h108l-4 -19q-9 -43 9 -71.5t63 -28.5q54 0 88 45.5t47 115.5q29 151 -64 151q-74 0 -106 -65l-100 4l112 371h341l-19 -91h-256l-62 -186l2 -2q58 55 130 55q53 0 87 -21t45 -55t13 -75.5t-8 -82.5q-24 -113 -92 -181.5t-178 -68.5q-96 0 -137.5 48.5
t-21.5 141.5z" />
    <glyph glyph-name="six" unicode="6" horiz-adv-x="480" 
d="M193 213q-6 -31 -6 -58q0 -41 18.5 -65t54.5 -24q48 0 80.5 42.5t45.5 109.5q31 153 -62 153q-101 0 -131 -158zM553 536h-114q7 37 -5.5 64.5t-51.5 27.5q-38 0 -67 -22t-48 -62.5t-29 -75.5t-20 -84l3 -2q57 75 154 75q76 0 114 -54.5t17 -156.5q-55 -260 -271 -260
q-86 0 -126 43t-38.5 118t21.5 178q17 86 40 150.5t58.5 119.5t88 84t119.5 29q190 0 155 -172z" />
    <glyph glyph-name="seven" unicode="7" horiz-adv-x="480" 
d="M153 592l21 102h420l-19 -90q-108 -111 -206.5 -279.5t-141.5 -324.5h-120q42 152 142.5 315.5t213.5 276.5h-310z" />
    <glyph glyph-name="eight" unicode="8" horiz-adv-x="480" 
d="M237 -14q-214 0 -170 212q15 75 57.5 120t99.5 57l1 2q-93 34 -66 153q17 83 78 130.5t150 47.5t130 -47.5t24 -130.5q-27 -120 -130 -153l-1 -2q53 -12 76.5 -56.5t8.5 -120.5q-44 -212 -258 -212zM181 200q-29 -134 72 -134q56 0 85.5 35.5t42.5 98.5q29 134 -72 134
q-56 0 -85.5 -35.5t-42.5 -98.5zM259 522q-5 -23 -5 -41q0 -67 72 -67q50 0 74.5 29t36.5 79q21 106 -67 106q-90 0 -111 -106z" />
    <glyph glyph-name="nine" unicode="9" horiz-adv-x="480" 
d="M431 481q6 31 6 57q0 41 -19 65.5t-55 24.5q-91 0 -126 -152q-31 -153 63 -153q57 0 85.5 41t45.5 117zM70 158h114q-7 -37 5.5 -64.5t51.5 -27.5q38 0 67 22t48 62.5t29 75.5t20 84l-3 2q-57 -75 -153 -75q-76 0 -114 54.5t-17 156.5q55 260 271 260q86 0 126 -43
t38 -118t-22 -178q-19 -87 -41 -150.5t-57 -119t-87 -84.5t-120 -29q-191 0 -156 172z" />
    <glyph glyph-name="colon" unicode=":" horiz-adv-x="240" 
d="M63 0l27 132h114l-27 -132h-114zM142 380l27 132h114l-27 -132h-114z" />
    <glyph glyph-name="semicolon" unicode=";" horiz-adv-x="240" 
d="M142 380l27 132h114l-27 -132h-114zM63 0l27 132h114l-27 -132q-14 -65 -48 -103.5t-99 -50.5l13 58q52 13 66 81l4 15h-50z" />
    <glyph glyph-name="semicolon" unicode="&#x37e;" horiz-adv-x="240" 
d="M142 380l27 132h114l-27 -132h-114zM63 0l27 132h114l-27 -132q-14 -65 -48 -103.5t-99 -50.5l13 58q52 13 66 81l4 15h-50z" />
    <glyph glyph-name="less" unicode="&#x3c;" horiz-adv-x="600" 
d="M91 216l16 74l553 226l-18 -86l-441 -177l367 -177l-18 -86z" />
    <glyph glyph-name="equal" unicode="=" horiz-adv-x="600" 
d="M69 106l17 86h506l-17 -86h-506zM112 314l18 86h506l-18 -86h-506z" />
    <glyph glyph-name="greater" unicode="&#x3e;" horiz-adv-x="600" 
d="M613 290l-16 -74l-553 -226l18 86l441 177l-367 177l18 86z" />
    <glyph glyph-name="question" unicode="?" horiz-adv-x="463" 
d="M162 0l23 114h114l-23 -114h-114zM208 192l13 60q8 40 29 70.5t47 51t51.5 41t47 51t29.5 70.5q21 106 -59 106q-90 0 -119 -141h-108q22 102 82 164.5t162 62.5q94 0 135 -49.5t21 -142.5q-10 -47 -34 -86t-52.5 -65t-56 -48.5t-49.5 -48.5t-28 -54l-9 -42h-102z" />
    <glyph glyph-name="at" unicode="@" horiz-adv-x="800" 
d="M653 549h71l-131 -270q-20 -41 -22 -49q-2 -12 4 -17t25 -5q44 0 96 61t69 141q22 103 -43 170.5t-172 67.5q-128 0 -230 -87t-127 -207q-27 -127 41.5 -207.5t186.5 -80.5q157 0 266 88h84q-59 -77 -153.5 -122.5t-212.5 -45.5q-164 0 -250.5 100t-51.5 272
q33 158 162.5 264t301.5 106q153 0 236 -85t55 -220q-11 -57 -38.5 -106t-61.5 -81.5t-73 -55.5t-74.5 -33t-65.5 -10q-71 0 -58 59h-2q-67 -59 -136 -59q-59 0 -89.5 44.5t-15.5 117.5q22 105 106.5 186.5t171.5 81.5q77 0 99 -77zM572 397q21 96 -61 96q-58 0 -112 -58.5
t-67 -122.5q-20 -101 72 -101q49 0 102 63.5t66 122.5z" />
    <glyph glyph-name="A" unicode="A" horiz-adv-x="519" 
d="M-9 0l351 714h146l40 -714h-119l-8 175h-209l-82 -175h-119zM232 266h169l-9 352h-2z" />
    <glyph glyph-name="B" unicode="B" horiz-adv-x="537" 
d="M59 0l148 714h231q86 0 130.5 -42t25.5 -131q-27 -131 -139 -162v-2q60 -10 83.5 -52.5t6.5 -129.5q-18 -90 -89 -142.5t-171 -52.5h-226zM190 86h113q106 0 132 126q12 57 -12 89t-75 32h-106zM258 413h90q51 0 84 30.5t45 82.5q13 59 -13 80.5t-81 21.5h-80z" />
    <glyph glyph-name="C" unicode="C" horiz-adv-x="519" 
d="M437 256h114l-3 -15q-11 -51 -31 -94.5t-52.5 -81t-81 -58.5t-108.5 -21q-132 0 -167 90t8 281q41 197 111.5 284t202.5 87q216 0 168 -224l-2 -13h-114l2 12q5 35 5.5 66.5t-19.5 52.5t-59 20q-44 0 -74 -22t-56.5 -84.5t-50.5 -175.5q-33 -172 -18 -230t80 -58
q109 0 142 172z" />
    <glyph glyph-name="D" unicode="D" horiz-adv-x="556" 
d="M59 0l148 714h203q55 0 94 -11t61.5 -35t34 -53t11.5 -72.5t-5.5 -85t-17.5 -100.5q-19 -90 -39 -146.5t-56 -109t-93 -77t-138 -24.5h-203zM303 628l-113 -542h94q72 0 114 58.5t76 212.5q32 151 14.5 211t-91.5 60h-94z" />
    <glyph glyph-name="E" unicode="E" horiz-adv-x="481" 
d="M59 0l148 714h386l-20 -96h-272l-41 -198h256l-20 -96h-256l-48 -228h280l-19 -96h-394z" />
    <glyph glyph-name="F" unicode="F" horiz-adv-x="463" 
d="M59 0l148 714h381l-20 -96h-267l-41 -198h251l-20 -96h-251l-67 -324h-114z" />
    <glyph glyph-name="G" unicode="G" horiz-adv-x="537" 
d="M412 0l17 83h-2q-35 -52 -74.5 -74.5t-101.5 -22.5q-115 0 -146 90t11 281q40 192 115.5 281.5t198.5 89.5q90 0 130.5 -43.5t40.5 -103.5q0 -32 -5 -59l-3 -13h-108l4 17q10 47 -6.5 81.5t-69.5 34.5q-65 0 -107 -59.5t-76 -222.5q-33 -172 -19.5 -230t74.5 -58
q65 0 103 50t62 168h-120l18 86h228l-78 -376h-86z" />
    <glyph glyph-name="H" unicode="H" horiz-adv-x="556" 
d="M59 0l148 714h114l-60 -286h210l60 286h114l-148 -714h-114l69 332h-210l-69 -332h-114z" />
    <glyph glyph-name="I" unicode="I" 
d="M54 0l148 714h114l-148 -714h-114z" />
    <glyph glyph-name="J" unicode="J" horiz-adv-x="444" 
d="M60 215h108l-7 -35q-24 -108 53 -108q22 0 39 9t26.5 19t18.5 34t12 36t10 44l104 500h114l-108 -517q-43 -211 -235 -211q-181 0 -144 183z" />
    <glyph glyph-name="K" unicode="K" horiz-adv-x="519" 
d="M59 0l148 714h114l-65 -311h2l281 311h125l-269 -301l143 -413h-129l-107 321l-81 -90l-48 -231h-114z" />
    <glyph glyph-name="L" unicode="L" horiz-adv-x="444" 
d="M46 0l148 714h114l-129 -618h276l-19 -96h-390z" />
    <glyph glyph-name="M" unicode="M" horiz-adv-x="722" 
d="M59 0l148 714h178l16 -529h2l234 529h174l-148 -714h-108l123 594h-2l-267 -594h-96l-21 594h-2l-123 -594h-108z" />
    <glyph glyph-name="N" unicode="N" horiz-adv-x="574" 
d="M59 0l148 714h139l96 -532h2l111 532h108l-148 -714h-139l-94 546h-2l-113 -546h-108z" />
    <glyph glyph-name="O" unicode="O" horiz-adv-x="556" 
d="M292 72q28 0 50 11t46 40.5t46 88.5t40 148q18 87 21.5 145t-8.5 86.5t-30 39.5t-46 11t-50.5 -11t-46 -39.5t-45 -86.5t-39.5 -145q-18 -89 -21.5 -148t8 -88.5t29.5 -40.5t46 -11zM275 -14q-123 0 -161 89.5t2 281.5t115 281.5t198 89.5t161 -89.5t-2 -281.5
t-115 -281.5t-198 -89.5z" />
    <glyph glyph-name="P" unicode="P" horiz-adv-x="500" 
d="M59 0l148 714h226q99 0 136 -56t18 -152q-21 -97 -87.5 -154t-165.5 -57h-100l-61 -295h-114zM303 628l-51 -247h81q50 0 88 29.5t51 93.5q13 61 -9 92.5t-87 31.5h-73z" />
    <glyph glyph-name="Q" unicode="Q" horiz-adv-x="556" 
d="M292 132l78 65l38 -47q37 63 66 210q18 87 21.5 145t-8.5 86.5t-30 39.5t-46 11t-50.5 -11t-46 -39.5t-45 -86.5t-39.5 -145q-18 -89 -21.5 -148t8 -88.5t29.5 -40.5t46 -11q25 0 43 7zM449 -64l-57 74q-47 -24 -117 -24q-123 0 -161 89.5t2 281.5t115 281.5t198 89.5
t161 -89.5t-2 -281.5q-41 -193 -115 -283l57 -77z" />
    <glyph glyph-name="R" unicode="R" horiz-adv-x="537" 
d="M255 396h91q54 0 90.5 31t47.5 85q24 116 -84 116h-97zM59 0l148 714h252q81 0 121.5 -45t21.5 -139q-15 -71 -56 -118.5t-100 -56.5v-2q53 -5 73.5 -39t8.5 -107q-23 -118 -27 -145q-6 -39 22 -62h-129q-11 16 -6 63q1 6 23 135q11 60 -6.5 86t-74.5 26h-93l-64 -310
h-114z" />
    <glyph glyph-name="S" unicode="S" horiz-adv-x="519" 
d="M78 221h114l-3 -18q-27 -131 89 -131q51 0 86.5 31t43.5 73q11 54 -8 83t-68 44l-72 27q-73 30 -98.5 75.5t-9.5 120.5q19 96 90.5 149t173.5 53q204 0 163 -188l-4 -16h-114l4 15q21 103 -79 103q-41 0 -73.5 -25t-43.5 -78q-10 -45 8.5 -72t72.5 -49l72 -28
q70 -27 95.5 -71t9.5 -118q-45 -215 -280 -215q-51 0 -87.5 13.5t-55.5 34.5t-28 50.5t-8.5 58.5t7.5 61z" />
    <glyph glyph-name="T" unicode="T" horiz-adv-x="463" 
d="M176 0l128 618h-170l20 96h451l-20 -96h-167l-128 -618h-114z" />
    <glyph glyph-name="U" unicode="U" horiz-adv-x="537" 
d="M198 714h114l-107 -512q-27 -130 78 -130q104 0 131 130l107 512h114l-105 -503q-25 -120 -91 -172.5t-173 -52.5t-152.5 53t-20.5 172z" />
    <glyph glyph-name="V" unicode="V" horiz-adv-x="481" 
d="M162 0l-20 714h121l2 -570h2l247 570h121l-328 -714h-145z" />
    <glyph glyph-name="W" unicode="W" horiz-adv-x="741" 
d="M144 0l10 714h115l-21 -555h2l209 555h120l-20 -558h2l209 558h113l-290 -714h-132l19 538h-2l-202 -538h-132z" />
    <glyph glyph-name="X" unicode="X" horiz-adv-x="500" 
d="M0 0l263 363l-99 351h126l65 -237l161 237h123l-246 -351l107 -363h-126l-71 258l-180 -258h-123z" />
    <glyph glyph-name="Y" unicode="Y" horiz-adv-x="481" 
d="M180 0l58 279l-94 435h127l56 -308l187 308h119l-281 -435l-58 -279h-114z" />
    <glyph glyph-name="Z" unicode="Z" horiz-adv-x="463" 
d="M18 0l18 90l409 528h-281l20 96h406l-20 -96l-408 -522h302l-19 -96h-427z" />
    <glyph glyph-name="bracketleft" unicode="[" horiz-adv-x="278" 
d="M38 -184l187 898h203l-17 -80h-101l-153 -738h101l-17 -80h-203z" />
    <glyph glyph-name="backslash" unicode="\" horiz-adv-x="296" 
d="M214 -14l-73 742h89l73 -742h-89z" />
    <glyph glyph-name="bracketright" unicode="]" horiz-adv-x="278" 
d="M-40 -184l17 80h100l153 738h-101l17 80h203l-187 -898h-202z" />
    <glyph glyph-name="asciicircum" unicode="^" horiz-adv-x="600" 
d="M515 280l-89 328l-225 -328h-86l290 414h76l120 -414h-86z" />
    <glyph glyph-name="underscore" unicode="_" horiz-adv-x="500" 
d="M-25 -125l10 50h499l-10 -50h-499z" />
    <glyph glyph-name="grave" unicode="`" 
d="M218 608l-76 144h120l30 -144h-74z" />
    <glyph glyph-name="a" unicode="a" horiz-adv-x="463" 
d="M343 194l19 90q-19 -13 -69 -28.5t-62 -21.5q-49 -21 -62 -87q-7 -36 5.5 -58.5t44.5 -22.5q48 0 79.5 33.5t44.5 94.5zM492 420l-64 -308q-3 -15 2.5 -26.5t17.5 -11.5t19 3l-15 -70q-28 -13 -56 -13q-39 0 -60.5 17t-15.5 54h-2q-60 -79 -150 -79q-139 0 -109 151
q9 43 23.5 73t37.5 48t44 27.5t55 20.5l89 23q35 9 52 22.5t25 46.5q18 80 -57 80q-49 0 -71.5 -28t-32.5 -75h-102q19 90 71.5 133.5t154.5 43.5q77 0 117.5 -32t26.5 -100z" />
    <glyph glyph-name="b" unicode="b" horiz-adv-x="481" 
d="M208 263q-21 -87 -11 -139t62 -52t82 49.5t51 149.5q22 109 12.5 152t-56.5 43q-58 0 -88 -48.5t-52 -154.5zM52 0l148 714h108l-50 -239h2q50 77 138 77q27 0 48 -5.5t40 -23t28 -47t8 -80.5t-15 -120q-61 -290 -236 -290q-28 0 -47.5 7t-30 20.5t-15.5 25t-9 27.5h-2
l-13 -66h-102z" />
    <glyph glyph-name="c" unicode="c" horiz-adv-x="444" 
d="M353 196h102q-28 -104 -80 -157t-147 -53q-75 0 -113.5 36t-41.5 99t13 148q28 137 88.5 210t170.5 73q46 1 78.5 -13t47 -34.5t20.5 -48.5t5 -50.5t-6 -46.5h-108q4 26 5 52t-14 44t-44 17q-54 0 -84.5 -52t-50.5 -151q-10 -49 -13.5 -82.5t0 -63t19.5 -43.5t44 -14
q43 -1 69.5 32.5t39.5 97.5z" />
    <glyph glyph-name="d" unicode="d" horiz-adv-x="481" 
d="M381 263q24 97 13.5 150t-69.5 53q-46 0 -74 -43.5t-50 -151.5q-23 -91 -13.5 -145t62.5 -54t82 47.5t49 143.5zM327 0l13 66h-2q-48 -80 -134 -80q-179 0 -116 290q18 86 43.5 143.5t56.5 85t59.5 37.5t63.5 10q88 0 106 -77h2l50 239h108l-148 -714h-102z" />
    <glyph glyph-name="e" unicode="e" horiz-adv-x="463" 
d="M213 329h173l6 29q25 120 -58 120q-87 0 -119 -138zM479 255h-281l-7 -31q-36 -164 56 -164q82 0 111 120h102q-18 -89 -80 -141.5t-149 -52.5q-25 0 -44.5 3.5t-42 12.5t-36.5 28.5t-23.5 48.5t-8 75.5t14.5 106.5q12 59 29.5 106t47 91.5t76 69t106.5 24.5
q106 0 136 -60.5t4 -179.5z" />
    <glyph glyph-name="f" unicode="f" horiz-adv-x="278" 
d="M85 0l95 458h-75l16 80h75l11 50q15 73 55.5 103.5t109.5 30.5q34 0 58 -3l-17 -83h-30q-58 0 -69 -51l-10 -47h88l-16 -80h-88l-95 -458h-108z" />
    <glyph glyph-name="g" unicode="g" horiz-adv-x="481" 
d="M211 286q-6 -30 -9 -47.5t-6 -43.5t-0.5 -42t8 -32t18.5 -23.5t32 -7.5q24 0 44.5 12.5t33.5 30t24.5 45.5t17.5 50t13 53q40 185 -48 185q-54 0 -81 -45.5t-47 -134.5zM48 -46h102q-5 -26 12.5 -45t52.5 -19q42 0 72 27t40 74l18 87h-2q-23 -35 -60.5 -54.5t-77.5 -19.5
q-163 0 -104 271q56 277 228 277q45 0 72.5 -24t29.5 -56h2l13 66h102l-106 -512q-43 -210 -245 -210q-81 0 -116.5 29t-35.5 69q0 24 3 40z" />
    <glyph glyph-name="h" unicode="h" horiz-adv-x="481" 
d="M52 0l148 714h108l-49 -234l3 -2q61 74 147 74q136 0 104 -146l-84 -406h-108l76 369q11 53 -1.5 75t-53.5 22q-36 0 -66 -27.5t-41 -77.5l-75 -361h-108z" />
    <glyph glyph-name="i" unicode="i" 
d="M184 614l23 108h108l-23 -108h-108zM57 0l111 538h108l-111 -538h-108z" />
    <glyph glyph-name="j" unicode="j" 
d="M207 722h108l-23 -108h-108zM168 538h108l-119 -573q-17 -81 -58.5 -115t-113.5 -34q-23 0 -46 3l17 83h25q31 0 46 15.5t24 57.5z" />
    <glyph glyph-name="k" unicode="k" horiz-adv-x="463" 
d="M52 0l148 714h108l-83 -401h2l209 225l126 1l-206 -208l115 -331h-118l-82 245l-76 -74l-35 -171h-108z" />
    <glyph glyph-name="l" unicode="l" 
d="M57 0l148 714h108l-148 -714h-108z" />
    <glyph glyph-name="m" unicode="m" horiz-adv-x="740" 
d="M57 0l111 538h102l-13 -63h3q27 36 66.5 56.5t78.5 20.5q99 0 108 -82q68 82 153 82q60 0 88.5 -34.5t13.5 -108.5l-85 -409h-108l76 369q11 52 0 74.5t-45 22.5q-36 0 -66 -27.5t-41 -77.5l-75 -361h-108l76 369q11 52 -0.5 74.5t-45.5 22.5t-65 -28t-41 -77l-75 -361
h-108z" />
    <glyph glyph-name="n" unicode="n" horiz-adv-x="481" 
d="M52 0l111 538h102l-13 -63h3q59 77 154 77q136 0 104 -146l-84 -406h-108l76 369q11 53 -1.5 75t-53.5 22q-36 0 -66 -27.5t-41 -77.5l-75 -361h-108z" />
    <glyph glyph-name="o" unicode="o" horiz-adv-x="463" 
d="M194 269q-25 -103 -15 -153t65 -50q56 0 83 45.5t52 157.5q10 50 13.5 83t0.5 62.5t-19 43.5t-45 14q-54 0 -84.5 -52t-50.5 -151zM86 269q28 137 88.5 210t170.5 73q76 0 114.5 -36t41 -99t-13.5 -148q-59 -283 -259 -283q-155 0 -155 168q0 54 13 115z" />
    <glyph glyph-name="p" unicode="p" horiz-adv-x="481" 
d="M211 275q-24 -97 -14.5 -150t63.5 -53q48 0 78 43t53 152q22 91 12.5 145t-62.5 54t-81.5 -47.5t-48.5 -143.5zM15 -176l148 714h102l-13 -66h2q53 80 137 80q90 0 117 -76t-4 -214q-33 -153 -94 -214.5t-129 -61.5q-88 0 -106 77h-2l-50 -239h-108z" />
    <glyph glyph-name="q" unicode="q" horiz-adv-x="481" 
d="M384 275q21 87 11 139t-63 52q-52 0 -82.5 -50t-49.5 -149q-21 -109 -10.5 -152t53.5 -43q59 0 89 48.5t52 154.5zM284 -176l50 239h-2q-50 -77 -139 -77q-165 0 -108 276q30 145 86.5 217.5t149.5 72.5q51 0 72.5 -22.5t29.5 -57.5h2l13 66h102l-148 -714h-108z" />
    <glyph glyph-name="r" unicode="r" horiz-adv-x="315" 
d="M52 0l111 538h108l-17 -84h2q59 98 145 98q16 0 25 -4l-22 -110q-16 6 -44 6q-107 0 -134 -122l-66 -322h-108z" />
    <glyph glyph-name="s" unicode="s" horiz-adv-x="426" 
d="M465 381h-102l3 14q3 17 3 31q0 52 -57 52q-77 0 -92 -70q-6 -32 6.5 -48t53.5 -31l64 -24q57 -21 77.5 -56.5t7.5 -98.5q-17 -82 -79 -123t-148 -41q-97 0 -128.5 42t-14.5 125l4 20h96l-3 -17q-10 -49 4 -72.5t60 -23.5q86 0 104 79q14 59 -42 79l-82 31
q-58 21 -77 55.5t-6 99.5q15 74 71.5 111t143.5 37q49 0 81 -13.5t44 -35t16 -47.5t-3 -51z" />
    <glyph glyph-name="t" unicode="t" horiz-adv-x="278" 
d="M99 458l16 80h74l32 153h108l-32 -153h88l-16 -80h-88l-67 -321q-7 -32 1 -44.5t36 -12.5q23 0 40 3l-17 -80q-36 -9 -89 -9q-58 0 -78.5 26.5t-3.5 103.5l70 334h-74z" />
    <glyph glyph-name="u" unicode="u" horiz-adv-x="481" 
d="M327 0l13 63h-3q-59 -77 -154 -77q-65 0 -91.5 39t-6.5 137l78 376h108l-80 -386q-9 -44 5 -62t51 -18q38 0 68 23.5t39 66.5l78 376h108l-111 -538h-102z" />
    <glyph glyph-name="v" unicode="v" horiz-adv-x="426" 
d="M151 0l-33 538h116l6 -424h2l173 424h115l-253 -538h-126z" />
    <glyph glyph-name="w" unicode="w" horiz-adv-x="685" 
d="M137 0l-11 538h112l-13 -424h2l168 424h122l-8 -424h2l162 424h108l-234 -538h-121l2 418h-2l-163 -418h-126z" />
    <glyph glyph-name="x" unicode="x" horiz-adv-x="426" 
d="M3 0l205 279l-86 259h118l47 -178l125 178h116l-193 -259l88 -279h-117l-53 199l-135 -199h-115z" />
    <glyph glyph-name="y" unicode="y" horiz-adv-x="426" 
d="M119 538h116l9 -404h2l170 404h113l-264 -558q-36 -74 -66 -109t-63.5 -46t-92.5 -9q-22 0 -42 4l18 86q16 -4 34 -4q30 0 49.5 8.5t32.5 33.5l23 44z" />
    <glyph glyph-name="z" unicode="z" horiz-adv-x="407" 
d="M25 0l17 84l310 363h-221l19 91h343l-18 -89l-301 -358h226l-18 -91h-357z" />
    <glyph glyph-name="braceleft" unicode="{" horiz-adv-x="278" 
d="M55 232l13 66q33 2 62.5 31.5t40.5 70.5l38 183q11 60 52 95.5t86 35.5h72l-13 -62h-33q-49 0 -62 -69l-38 -183q-14 -61 -52 -94.5t-68 -39.5l-1 -2q28 -6 52.5 -39.5t12.5 -94.5l-39 -183q-8 -31 -0.5 -50t34.5 -19h33l-13 -62h-72q-46 0 -71 35t-13 96l39 183
q8 41 -9.5 70.5t-50.5 31.5z" />
    <glyph glyph-name="bar" unicode="|" 
d="M65 -14l154 742h86l-154 -742h-86z" />
    <glyph glyph-name="braceright" unicode="}" horiz-adv-x="278" 
d="M332 298l-13 -66q-33 -2 -63.5 -32t-38.5 -70l-39 -183q-11 -60 -52 -95.5t-86 -35.5h-71l13 62h32q49 0 62 69l39 183q12 61 50.5 94.5t68.5 39.5l1 2q-11 2 -23 10t-25.5 24t-17.5 40.5t2 59.5l38 183q8 31 0.5 50t-34.5 19h-33l13 62h72q46 0 71 -35t13 -96l-38 -183
q-9 -41 8.5 -70.5t50.5 -31.5z" />
    <glyph glyph-name="asciitilde" unicode="~" horiz-adv-x="600" 
d="M140 169l-21 76q63 87 144 87q44 0 108 -37q64 -35 90 -35q45 0 104 77l20 -76q-71 -87 -143 -87q-41 0 -109 37q-64 35 -89 35q-45 0 -104 -77z" />
    <glyph glyph-name="uni00A0" unicode="&#xa0;" horiz-adv-x="240" 
 />
    <glyph glyph-name="exclamdown" unicode="&#xa1;" horiz-adv-x="278" 
d="M307 538l-23 -114h-114l23 114h114zM250 346l-44 -296l-47 -226h-114l47 226l78 296h80z" />
    <glyph glyph-name="cent" unicode="&#xa2;" horiz-adv-x="480" 
d="M202 -102l19 88q-65 5 -97.5 43t-34 99t13.5 141q55 269 235 283l16 75h44l-16 -75q49 -3 80 -25t39.5 -51t10.5 -61.5t-6 -55.5h-108q18 100 -32 113l-85 -406q65 17 89 130h102q-26 -97 -74 -150.5t-133 -59.5l-19 -88h-44zM237 66l85 406q-74 -20 -111 -203
q-19 -77 -15 -133.5t41 -69.5z" />
    <glyph glyph-name="sterling" unicode="&#xa3;" horiz-adv-x="480" 
d="M83 315l14 68h69l-10 35q-20 62 -10 111q16 72 81 125.5t164 53.5q75 0 118 -28.5t53.5 -70.5t-0.5 -95l-2 -12h-108l2 11q2 23 2 48.5t-19.5 46t-57.5 20.5q-45 0 -76.5 -23.5t-39.5 -62.5q-11 -49 9 -113l13 -46h166l-14 -68h-140q2 -18 2 -27q0 -16 -4 -32
q-11 -53 -49.5 -92t-103.5 -81l1 -4q41 23 78 23q20 0 60 -15t58 -15q29 0 81 26l33 16l22 -79l-23 -12q-72 -38 -134 -37q-34 0 -86.5 19.5t-79.5 19.5q-34 0 -102 -31l-24 77l21 13q121 81 138 165q7 26 -4 66h-98z" />
    <glyph glyph-name="currency" unicode="&#xa4;" horiz-adv-x="480" 
d="M279 191q63 0 116 45t67 111t-20.5 111t-97.5 45t-115.5 -45t-66.5 -111t20 -111t97 -45zM38 157l62 51q-34 63 -18 139q16 79 76 139l-41 51l55 45l40 -51q72 46 147 46q76 0 129 -46l62 51l35 -45l-62 -52q35 -64 19 -138q-16 -75 -76 -138l40 -52l-54 -45l-41 52
q-68 -47 -147 -47q-76 0 -128 47l-62 -52z" />
    <glyph glyph-name="yen" unicode="&#xa5;" horiz-adv-x="480" 
d="M182 0l33 162h-141l14 68h141l10 47l-5 23h-131l14 68h101l-72 326h124l55 -284l178 284h119l-215 -326h100l-14 -68h-130l-16 -23l-10 -47h141l-14 -68h-141l-33 -162h-108z" />
    <glyph glyph-name="brokenbar" unicode="&#xa6;" 
d="M161 451l58 277h86l-58 -277h-86zM65 -14l57 277h86l-57 -277h-86z" />
    <glyph glyph-name="section" unicode="&#xa7;" horiz-adv-x="481" 
d="M542 571h-108q17 77 -62 77q-34 0 -59 -18t-31 -47q-5 -23 8.5 -42t49.5 -43l119 -75q76 -48 54 -149q-8 -42 -37 -78.5t-71 -60.5q48 -51 32 -116q-17 -84 -79 -129.5t-147 -45.5q-96 0 -134 49.5t-21 133.5h108q-19 -97 65 -97q33 0 58.5 20t33.5 55q7 34 -8 54t-47 40
l-101 62q-96 60 -76 154q21 92 123 142q-58 36 -41 115q15 74 77 115t144 41q52 0 87 -15t48 -38t18 -51t-3 -53zM373 346l-104 69l-16 -11q-57 -36 -65 -76q-6 -25 7.5 -41t51.5 -41l100 -67l18 12q41 31 50 71q9 50 -42 84z" />
    <glyph glyph-name="dieresis" unicode="&#xa8;" 
d="M110 626l23 108h96l-23 -108h-96zM276 626l23 108h96l-23 -108h-96z" />
    <glyph glyph-name="copyright" unicode="&#xa9;" horiz-adv-x="800" 
d="M103 357q32 154 163 262.5t285 108.5t240 -108.5t54 -262.5t-163.5 -262.5t-284.5 -108.5q-154 0 -240 108.5t-54 262.5zM413 66q116 0 215.5 85t125.5 206q24 121 -40 206t-180 85t-216 -85.5t-124 -205.5q-26 -120 38.5 -205.5t180.5 -85.5zM570 292h83
q-27 -74 -87 -116t-135 -42q-91 0 -134 61t-21 163q20 102 90 162.5t165 60.5q71 0 111.5 -40t35.5 -113h-80q0 37 -22 59t-62 20q-56 0 -98 -42.5t-54 -106.5q-15 -65 10 -107.5t84 -42.5q38 0 69 22.5t45 61.5z" />
    <glyph glyph-name="ordfeminine" unicode="&#xaa;" horiz-adv-x="316" 
d="M298 490l12 57q-11 -7 -43 -16.5t-41 -14.5q-28 -11 -36 -51q-3 -15 6.5 -25.5t28.5 -10.5q27 0 47.5 17t25.5 44zM103 457q11 52 35.5 71t77.5 33l55 13q25 6 37 14t17 28q3 16 -5.5 26t-33.5 10q-54 0 -63 -50h-74q11 54 46.5 80t111.5 26q54 0 81.5 -19t18.5 -60
l-37 -177q-2 -9 1.5 -16t11.5 -7q6 0 14 2l-12 -57q-21 -7 -42 -7q-26 0 -41 11.5t-11 35.5h-3q-41 -47 -106 -47q-98 0 -79 90z" />
    <glyph glyph-name="guillemotleft" unicode="&#xab;" horiz-adv-x="407" 
d="M98 232l23 114l173 135l-23 -110l-105 -82l71 -82l-23 -110zM261 232l23 114l173 135l-23 -110l-105 -82l71 -82l-23 -110z" />
    <glyph glyph-name="logicalnot" unicode="&#xac;" horiz-adv-x="600" 
d="M489 106l43 208h-420l18 86h506l-61 -294h-86z" />
    <glyph glyph-name="uni00AD" unicode="&#xad;" horiz-adv-x="352" 
d="M94 238l21 102h262l-21 -102h-262z" />
    <glyph glyph-name="registered" unicode="&#xae;" horiz-adv-x="800" 
d="M103 357q32 154 163 262.5t285 108.5t240 -108.5t54 -262.5t-163.5 -262.5t-284.5 -108.5q-154 0 -240 108.5t-54 262.5zM413 66q116 0 215.5 85t125.5 206q24 121 -40 206t-180 85t-216 -85.5t-124 -205.5q-26 -120 38.5 -205.5t180.5 -85.5zM394 386h76q49 0 76 11.5
t37 52.5q7 33 -17.5 45t-64.5 12h-82zM515 145l-71 179h-63l-37 -179h-74l88 424h165q80 0 113.5 -29t19.5 -93q-21 -100 -134 -120l79 -182h-86z" />
    <glyph glyph-name="macron" unicode="&#xaf;" 
d="M118 711h282l-13 -62h-282z" />
    <glyph glyph-name="degree" unicode="&#xb0;" horiz-adv-x="400" 
d="M235 559q-8 -33 11 -57t53 -24q33 0 61.5 23.5t36.5 57.5q7 34 -11.5 57.5t-52.5 23.5t-62.5 -23.5t-35.5 -57.5zM167 559q12 61 65 105t115 44t96 -43.5t22 -105.5t-65 -105.5t-115 -43.5t-96 43.5t-22 105.5z" />
    <glyph glyph-name="plusminus" unicode="&#xb1;" horiz-adv-x="600" 
d="M47 0l17 86h506l-17 -86h-506zM330 355l32 151h86l-32 -151h210l-18 -86h-210l-31 -151h-86l31 151h-210l18 86h210z" />
    <glyph glyph-name="twosuperior" unicode="&#xb2;" horiz-adv-x="313" 
d="M364 348l-14 -68h-276q11 55 39.5 96t62 64.5t66.5 43.5t58 45.5t32 58.5q12 58 -39 58q-32 0 -49.5 -23.5t-22.5 -52.5h-86q28 138 172 138q137 0 112 -114q-10 -46 -41.5 -81.5t-66 -54.5t-74 -48.5t-58.5 -61.5h185z" />
    <glyph glyph-name="threesuperior" unicode="&#xb3;" horiz-adv-x="313" 
d="M213 471l13 62h27q61 0 76 59q4 21 -5.5 37.5t-33.5 16.5q-27 0 -43.5 -19t-22.5 -42h-86q13 59 58.5 91t112.5 32q51 0 84.5 -28t22.5 -80q-6 -33 -35.5 -60.5t-63.5 -33.5l-1 -2q39 -2 59.5 -28.5t11.5 -70.5q-14 -62 -62.5 -97t-113.5 -35q-74 0 -103 30.5t-15 96.5
h86q-5 -23 5 -44t40 -21q31 0 50.5 20.5t26.5 50.5q13 65 -58 65h-30z" />
    <glyph glyph-name="acute" unicode="&#xb4;" 
d="M182 608l90 144h120l-136 -144h-74z" />
    <glyph glyph-name="mu" unicode="&#xb5;" horiz-adv-x="481" 
d="M15 -176l148 714h108l-76 -369q-11 -53 1 -75t53 -22q35 0 66.5 28t41.5 77l75 361h108l-111 -538h-102l13 63h-3q-28 -36 -63 -56.5t-67 -20.5q-33 0 -47 18l-37 -180h-108z" />
    <glyph glyph-name="paragraph" unicode="&#xb6;" horiz-adv-x="600" 
d="M413 -142l164 788h-111l-164 -788h-91l101 486q-78 0 -122 52t-28 130q19 96 91 142t181 46h248l-178 -856h-91z" />
    <glyph glyph-name="periodcentered" unicode="&#xb7;" horiz-adv-x="240" 
d="M112 308q6 30 31.5 51t55.5 21t46.5 -21t10.5 -51q-7 -30 -32 -51t-55 -21t-47 21t-10 51z" />
    <glyph glyph-name="cedilla" unicode="&#xb8;" 
d="M96 0h50l-53 -60q18 5 41 5q33 0 51 -22t11 -52q-12 -46 -44.5 -69.5t-90.5 -24.5q-59 0 -97 19l24 40q28 -13 63 -13q56 0 64 40q3 17 -8 27.5t-30 10.5q-11 0 -40 -8l-15 17z" />
    <glyph glyph-name="onesuperior" unicode="&#xb9;" horiz-adv-x="313" 
d="M188 280l63 305h-90l12 56h7q93 0 121 59l2 8h60l-89 -428h-86z" />
    <glyph glyph-name="ordmasculine" unicode="&#xba;" horiz-adv-x="316" 
d="M247 429q34 0 50.5 27t29.5 80q12 44 5 77t-40 33q-60 0 -81 -110q-26 -107 36 -107zM234 367q-79 0 -102.5 44t-6.5 125q17 83 58.5 127.5t121.5 44.5q116 0 116 -102q0 -28 -8 -70q-17 -82 -58 -125.5t-121 -43.5z" />
    <glyph glyph-name="guillemotright" unicode="&#xbb;" horiz-adv-x="407" 
d="M428 346l-23 -114l-172 -135l23 110l105 82l-71 82l23 110zM265 346l-23 -114l-172 -135l23 110l105 82l-71 82l23 110z" />
    <glyph glyph-name="onequarter" unicode="&#xbc;" horiz-adv-x="721" 
d="M158 280l63 305h-90l12 56h7q93 0 121 59l2 8h60l-89 -428h-86zM67 -31l578 756h74l-578 -756h-74zM576 150l38 182h-2l-141 -182h105zM545 0l19 94h-164l13 61l214 273h86l-57 -278h50l-12 -56h-50l-19 -94h-80z" />
    <glyph glyph-name="onehalf" unicode="&#xbd;" horiz-adv-x="721" 
d="M687 0h-276q11 55 39.5 96t62 64.5t66.5 43.5t58 45.5t32 58.5q12 58 -39 58q-32 0 -49.5 -23.5t-22.5 -52.5h-86q28 138 171 138q138 0 113 -114q-10 -46 -41.5 -81.5t-66 -54.5t-74 -48.5t-58.5 -61.5h185zM158 280l63 305h-90l12 56h7q93 0 121 59l2 8h60l-89 -428
h-86zM67 -31l578 756h74l-578 -756h-74z" />
    <glyph glyph-name="threequarters" unicode="&#xbe;" horiz-adv-x="721" 
d="M187 471l13 62h27q61 0 76 59q4 21 -5.5 37.5t-33.5 16.5q-27 0 -43.5 -19t-22.5 -42h-86q13 59 58.5 91t112.5 32q51 0 84.5 -28t22.5 -80q-6 -33 -35.5 -60.5t-63.5 -33.5l-1 -2q39 -2 59.5 -28.5t11.5 -70.5q-14 -62 -62.5 -97t-113.5 -35q-74 0 -103 30.5t-15 96.5
h86q-5 -23 5 -44t40 -21q31 0 50.5 20.5t26.5 50.5q13 65 -58 65h-30zM101 -31l578 756h74l-578 -756h-74zM576 150l38 182h-2l-141 -182h105zM545 0l19 94h-164l13 61l214 273h86l-57 -278h50l-12 -56h-50l-19 -94h-80z" />
    <glyph glyph-name="questiondown" unicode="&#xbf;" horiz-adv-x="463" 
d="M412 538l-23 -114h-114l23 114h114zM365 346l-12 -60q-8 -40 -29 -70.5t-47 -51l-52 -41t-47 -51t-29 -70.5q-5 -23 -5 -40q0 -66 64 -66q90 0 119 141h108q-22 -103 -82 -165t-162 -62q-94 0 -135 49.5t-21 142.5q10 47 34 86t52.5 65t56 48.5t49 48.5t28.5 54l8 42h102
z" />
    <glyph glyph-name="Agrave" unicode="&#xc0;" horiz-adv-x="519" 
d="M-9 0l351 714h146l40 -714h-119l-8 175h-209l-82 -175h-119zM232 266h169l-9 352h-2zM395 762l-76 144h120l30 -144h-74z" />
    <glyph glyph-name="Aacute" unicode="&#xc1;" horiz-adv-x="519" 
d="M-9 0l351 714h146l40 -714h-119l-8 175h-209l-82 -175h-119zM232 266h169l-9 352h-2zM369 762l90 144h120l-136 -144h-74z" />
    <glyph glyph-name="Acircumflex" unicode="&#xc2;" horiz-adv-x="519" 
d="M-9 0l351 714h146l40 -714h-119l-8 175h-209l-82 -175h-119zM232 266h169l-9 352h-2zM278 762l121 144h108l59 -144h-91l-36 88l-75 -88h-86z" />
    <glyph glyph-name="Atilde" unicode="&#xc3;" horiz-adv-x="519" 
d="M-9 0l351 714h146l40 -714h-119l-8 175h-209l-82 -175h-119zM232 266h169l-9 352h-2zM524 896h62q-7 -39 -39.5 -78.5t-71.5 -39.5q-24 0 -61 17.5t-51 17.5q-16 0 -27.5 -11.5t-15.5 -28.5h-62q7 41 41.5 80.5t84.5 39.5q10 0 50 -17q34 -18 52 -18q30 0 38 38z" />
    <glyph glyph-name="Adieresis" unicode="&#xc4;" horiz-adv-x="519" 
d="M-9 0l351 714h146l40 -714h-119l-8 175h-209l-82 -175h-119zM232 266h169l-9 352h-2zM294 780l23 108h96l-23 -108h-96zM460 780l23 108h96l-23 -108h-96z" />
    <glyph glyph-name="Aring" unicode="&#xc5;" horiz-adv-x="519" 
d="M-9 0l351 714h146l40 -714h-119l-8 175h-209l-82 -175h-119zM232 266h169l-9 352h-2zM327 846q8 45 45.5 74.5t82.5 29.5t69 -29.5t15 -74.5q-11 -45 -47 -74.5t-81 -29.5t-69 29.5t-15 74.5zM377 846q-5 -23 8 -40t36 -17t43 17t25 40t-8.5 40t-36.5 17t-42.5 -16.5
t-24.5 -40.5z" />
    <glyph glyph-name="AE" unicode="&#xc6;" horiz-adv-x="741" 
d="M-12 0l421 714h437l-20 -96h-253l-41 -198h239l-20 -96h-239l-48 -228h262l-19 -96h-370l36 175h-167l-99 -175h-119zM255 266h137l74 357h-9z" />
    <glyph glyph-name="Ccedilla" unicode="&#xc7;" horiz-adv-x="519" 
d="M437 256h114l-3 -15q-35 -174 -164 -234q-40 -18 -96 -21l-40 -46q18 5 41 5q33 0 51 -22t11 -52q-12 -46 -44.5 -69.5t-90.5 -24.5q-59 0 -97 19l24 40q28 -13 63 -13q56 0 64 40q3 17 -8 27.5t-30 10.5q-11 0 -40 -8l-15 17l63 78q-46 5 -74 20q-60 33 -71 120t21 229
q41 197 111.5 284t202.5 87q216 0 168 -224l-2 -13h-114l2 12q5 35 5.5 66.5t-19.5 52.5t-59 20q-44 0 -74 -22t-56.5 -84.5t-50.5 -175.5q-33 -172 -18 -230t80 -58q109 0 142 172z" />
    <glyph glyph-name="Egrave" unicode="&#xc8;" horiz-adv-x="481" 
d="M59 0l148 714h386l-20 -96h-272l-41 -198h256l-20 -96h-256l-48 -228h280l-19 -96h-394zM390 762l-76 144h120l30 -144h-74z" />
    <glyph glyph-name="Eacute" unicode="&#xc9;" horiz-adv-x="481" 
d="M59 0l148 714h386l-20 -96h-272l-41 -198h256l-20 -96h-256l-48 -228h280l-19 -96h-394zM365 762l90 144h120l-136 -144h-74z" />
    <glyph glyph-name="Ecircumflex" unicode="&#xca;" horiz-adv-x="481" 
d="M59 0l148 714h386l-20 -96h-272l-41 -198h256l-20 -96h-256l-48 -228h280l-19 -96h-394zM264 762l121 144h108l59 -144h-91l-36 88l-75 -88h-86z" />
    <glyph glyph-name="Edieresis" unicode="&#xcb;" horiz-adv-x="481" 
d="M59 0l148 714h386l-20 -96h-272l-41 -198h256l-20 -96h-256l-48 -228h280l-19 -96h-394zM277 780l23 108h96l-23 -108h-96zM443 780l23 108h96l-23 -108h-96z" />
    <glyph glyph-name="Igrave" unicode="&#xcc;" 
d="M54 0l148 714h114l-148 -714h-114zM248 762l-76 144h120l30 -144h-74z" />
    <glyph glyph-name="Iacute" unicode="&#xcd;" 
d="M54 0l148 714h114l-148 -714h-114zM207 762l90 144h120l-136 -144h-74z" />
    <glyph glyph-name="Icircumflex" unicode="&#xce;" 
d="M54 0l148 714h114l-148 -714h-114zM121 762l121 144h108l59 -144h-91l-36 88l-75 -88h-86z" />
    <glyph glyph-name="Idieresis" unicode="&#xcf;" 
d="M54 0l148 714h114l-148 -714h-114zM137 780l23 108h96l-23 -108h-96zM303 780l23 108h96l-23 -108h-96z" />
    <glyph glyph-name="Eth" unicode="&#xd0;" horiz-adv-x="556" 
d="M190 86h94q72 0 114 58.5t76 212.5q32 151 14.5 211t-91.5 60h-94l-45 -215h119l-16 -80h-119zM59 0l69 333h-59l16 80h59l63 301h203q55 0 94 -11t61.5 -35t34 -53t11.5 -72.5t-5.5 -85t-17.5 -100.5q-19 -90 -39 -146.5t-56 -109t-93 -77t-138 -24.5h-203z" />
    <glyph glyph-name="Ntilde" unicode="&#xd1;" horiz-adv-x="574" 
d="M59 0l148 714h139l96 -532h2l111 532h108l-148 -714h-139l-94 546h-2l-113 -546h-108zM554 896h62q-7 -39 -39.5 -78.5t-71.5 -39.5q-24 0 -61 17.5t-51 17.5q-16 0 -27.5 -11.5t-15.5 -28.5h-62q7 41 41.5 80.5t84.5 39.5q10 0 50 -17q34 -18 52 -18q30 0 38 38z" />
    <glyph glyph-name="Ograve" unicode="&#xd2;" horiz-adv-x="556" 
d="M292 72q28 0 50 11t46 40.5t46 88.5t40 148q18 87 21.5 145t-8.5 86.5t-30 39.5t-46 11t-50.5 -11t-46 -39.5t-45 -86.5t-39.5 -145q-18 -89 -21.5 -148t8 -88.5t29.5 -40.5t46 -11zM275 -14q-123 0 -161 89.5t2 281.5t115 281.5t198 89.5t161 -89.5t-2 -281.5
t-115 -281.5t-198 -89.5zM402 762l-76 144h120l30 -144h-74z" />
    <glyph glyph-name="Oacute" unicode="&#xd3;" horiz-adv-x="556" 
d="M292 72q28 0 50 11t46 40.5t46 88.5t40 148q18 87 21.5 145t-8.5 86.5t-30 39.5t-46 11t-50.5 -11t-46 -39.5t-45 -86.5t-39.5 -145q-18 -89 -21.5 -148t8 -88.5t29.5 -40.5t46 -11zM275 -14q-123 0 -161 89.5t2 281.5t115 281.5t198 89.5t161 -89.5t-2 -281.5
t-115 -281.5t-198 -89.5zM390 762l90 144h120l-136 -144h-74z" />
    <glyph glyph-name="Ocircumflex" unicode="&#xd4;" horiz-adv-x="556" 
d="M292 72q28 0 50 11t46 40.5t46 88.5t40 148q18 87 21.5 145t-8.5 86.5t-30 39.5t-46 11t-50.5 -11t-46 -39.5t-45 -86.5t-39.5 -145q-18 -89 -21.5 -148t8 -88.5t29.5 -40.5t46 -11zM275 -14q-123 0 -161 89.5t2 281.5t115 281.5t198 89.5t161 -89.5t-2 -281.5
t-115 -281.5t-198 -89.5zM299 762l121 144h108l59 -144h-91l-36 88l-75 -88h-86z" />
    <glyph glyph-name="Otilde" unicode="&#xd5;" horiz-adv-x="556" 
d="M292 72q28 0 50 11t46 40.5t46 88.5t40 148q18 87 21.5 145t-8.5 86.5t-30 39.5t-46 11t-50.5 -11t-46 -39.5t-45 -86.5t-39.5 -145q-18 -89 -21.5 -148t8 -88.5t29.5 -40.5t46 -11zM275 -14q-123 0 -161 89.5t2 281.5t115 281.5t198 89.5t161 -89.5t-2 -281.5
t-115 -281.5t-198 -89.5zM543 896h62q-7 -39 -39.5 -78.5t-71.5 -39.5q-24 0 -61 17.5t-51 17.5q-16 0 -27.5 -11.5t-15.5 -28.5h-62q7 41 41.5 80.5t84.5 39.5q10 0 50 -17q34 -18 52 -18q30 0 38 38z" />
    <glyph glyph-name="Odieresis" unicode="&#xd6;" horiz-adv-x="556" 
d="M292 72q28 0 50 11t46 40.5t46 88.5t40 148q18 87 21.5 145t-8.5 86.5t-30 39.5t-46 11t-50.5 -11t-46 -39.5t-45 -86.5t-39.5 -145q-18 -89 -21.5 -148t8 -88.5t29.5 -40.5t46 -11zM275 -14q-123 0 -161 89.5t2 281.5t115 281.5t198 89.5t161 -89.5t-2 -281.5
t-115 -281.5t-198 -89.5zM309 780l23 108h96l-23 -108h-96zM475 780l23 108h96l-23 -108h-96z" />
    <glyph glyph-name="multiply" unicode="&#xd7;" horiz-adv-x="600" 
d="M296 253l-138 174l68 56l137 -174l211 174l44 -56l-211 -174l139 -174l-68 -56l-138 175l-210 -175l-44 56z" />
    <glyph glyph-name="Oslash" unicode="&#xd8;" horiz-adv-x="556" 
d="M125 -52l-46 24l49 78q-59 86 -12 307q40 192 115 281.5t198 89.5q69 0 109 -28l41 65l46 -24l-49 -77q58 -89 12 -307q-40 -192 -115 -281.5t-198 -89.5q-69 0 -109 28zM211 179l269 428q-19 35 -69 35q-28 0 -50.5 -11t-46 -39.5t-45 -86.5t-39.5 -145
q-24 -120 -21 -181h2zM494 535l-269 -428q19 -35 67 -35q28 0 50 11t46 40.5t46 88.5t40 148q24 111 22 175h-2z" />
    <glyph glyph-name="Ugrave" unicode="&#xd9;" horiz-adv-x="537" 
d="M198 714h114l-107 -512q-27 -130 78 -130q104 0 131 130l107 512h114l-105 -503q-25 -120 -91 -172.5t-173 -52.5t-152.5 53t-20.5 172zM393 762l-76 144h120l30 -144h-74z" />
    <glyph glyph-name="Uacute" unicode="&#xda;" horiz-adv-x="537" 
d="M198 714h114l-107 -512q-27 -130 78 -130q104 0 131 130l107 512h114l-105 -503q-25 -120 -91 -172.5t-173 -52.5t-152.5 53t-20.5 172zM385 762l90 144h120l-136 -144h-74z" />
    <glyph glyph-name="Ucircumflex" unicode="&#xdb;" horiz-adv-x="537" 
d="M198 714h114l-107 -512q-27 -130 78 -130q104 0 131 130l107 512h114l-105 -503q-25 -120 -91 -172.5t-173 -52.5t-152.5 53t-20.5 172zM285 762l121 144h108l59 -144h-91l-36 88l-75 -88h-86z" />
    <glyph glyph-name="Udieresis" unicode="&#xdc;" horiz-adv-x="537" 
d="M198 714h114l-107 -512q-27 -130 78 -130q104 0 131 130l107 512h114l-105 -503q-25 -120 -91 -172.5t-173 -52.5t-152.5 53t-20.5 172zM294 780l23 108h96l-23 -108h-96zM460 780l23 108h96l-23 -108h-96z" />
    <glyph glyph-name="Yacute" unicode="&#xdd;" horiz-adv-x="481" 
d="M180 0l58 279l-94 435h127l56 -308l187 308h119l-281 -435l-58 -279h-114zM361 762l90 144h120l-136 -144h-74z" />
    <glyph glyph-name="Thorn" unicode="&#xde;" horiz-adv-x="500" 
d="M59 0l148 714h114l-28 -136h112q98 0 135.5 -56t17.5 -152q-21 -98 -87 -154.5t-165 -56.5h-100l-33 -159h-114zM275 492l-52 -247h81q50 0 88.5 29.5t51.5 93.5q13 61 -9 92.5t-87 31.5h-73z" />
    <glyph glyph-name="germandbls" unicode="&#xdf;" horiz-adv-x="481" 
d="M207 -6l18 86h27q99 0 129 140q29 143 -69 143h-26l17 80h19q27 0 58.5 23.5t42.5 74.5q21 101 -59 101q-79 0 -100 -101l-112 -541h-108l110 533q39 189 228 189q50 0 87 -13t58 -51.5t8 -99.5q-25 -122 -131 -148l-1 -2q125 -14 93 -186q-23 -105 -82.5 -166.5
t-155.5 -61.5h-51z" />
    <glyph glyph-name="agrave" unicode="&#xe0;" horiz-adv-x="463" 
d="M343 194l19 90q-19 -13 -69 -28.5t-62 -21.5q-49 -21 -62 -87q-7 -36 5.5 -58.5t44.5 -22.5q48 0 79.5 33.5t44.5 94.5zM492 420l-64 -308q-3 -15 2.5 -26.5t17.5 -11.5t19 3l-15 -70q-28 -13 -56 -13q-39 0 -60.5 17t-15.5 54h-2q-60 -79 -150 -79q-139 0 -109 151
q9 43 23.5 73t37.5 48t44 27.5t55 20.5l89 23q35 9 52 22.5t25 46.5q18 80 -57 80q-49 0 -71.5 -28t-32.5 -75h-102q19 90 71.5 133.5t154.5 43.5q77 0 117.5 -32t26.5 -100zM357 608l-76 144h120l30 -144h-74z" />
    <glyph glyph-name="aacute" unicode="&#xe1;" horiz-adv-x="463" 
d="M343 194l19 90q-19 -13 -69 -28.5t-62 -21.5q-49 -21 -62 -87q-7 -36 5.5 -58.5t44.5 -22.5q48 0 79.5 33.5t44.5 94.5zM492 420l-64 -308q-3 -15 2.5 -26.5t17.5 -11.5t19 3l-15 -70q-28 -13 -56 -13q-39 0 -60.5 17t-15.5 54h-2q-60 -79 -150 -79q-139 0 -109 151
q9 43 23.5 73t37.5 48t44 27.5t55 20.5l89 23q35 9 52 22.5t25 46.5q18 80 -57 80q-49 0 -71.5 -28t-32.5 -75h-102q19 90 71.5 133.5t154.5 43.5q77 0 117.5 -32t26.5 -100zM319 608l90 144h120l-136 -144h-74z" />
    <glyph glyph-name="acircumflex" unicode="&#xe2;" horiz-adv-x="463" 
d="M343 194l19 90q-19 -13 -69 -28.5t-62 -21.5q-49 -21 -62 -87q-7 -36 5.5 -58.5t44.5 -22.5q48 0 79.5 33.5t44.5 94.5zM492 420l-64 -308q-3 -15 2.5 -26.5t17.5 -11.5t19 3l-15 -70q-28 -13 -56 -13q-39 0 -60.5 17t-15.5 54h-2q-60 -79 -150 -79q-139 0 -109 151
q9 43 23.5 73t37.5 48t44 27.5t55 20.5l89 23q35 9 52 22.5t25 46.5q18 80 -57 80q-49 0 -71.5 -28t-32.5 -75h-102q19 90 71.5 133.5t154.5 43.5q77 0 117.5 -32t26.5 -100zM218 608l121 144h108l59 -144h-91l-36 88l-75 -88h-86z" />
    <glyph glyph-name="atilde" unicode="&#xe3;" horiz-adv-x="463" 
d="M343 194l19 90q-19 -13 -69 -28.5t-62 -21.5q-49 -21 -62 -87q-7 -36 5.5 -58.5t44.5 -22.5q48 0 79.5 33.5t44.5 94.5zM492 420l-64 -308q-3 -15 2.5 -26.5t17.5 -11.5t19 3l-15 -70q-28 -13 -56 -13q-39 0 -60.5 17t-15.5 54h-2q-60 -79 -150 -79q-139 0 -109 151
q9 43 23.5 73t37.5 48t44 27.5t55 20.5l89 23q35 9 52 22.5t25 46.5q18 80 -57 80q-49 0 -71.5 -28t-32.5 -75h-102q19 90 71.5 133.5t154.5 43.5q77 0 117.5 -32t26.5 -100zM466 742h62q-7 -39 -39.5 -78.5t-71.5 -39.5q-24 0 -61 17.5t-51 17.5q-16 0 -27.5 -11.5
t-15.5 -28.5h-62q7 41 41.5 80.5t84.5 39.5q10 0 50 -17q34 -18 52 -18q30 0 38 38z" />
    <glyph glyph-name="adieresis" unicode="&#xe4;" horiz-adv-x="463" 
d="M343 194l19 90q-19 -13 -69 -28.5t-62 -21.5q-49 -21 -62 -87q-7 -36 5.5 -58.5t44.5 -22.5q48 0 79.5 33.5t44.5 94.5zM492 420l-64 -308q-3 -15 2.5 -26.5t17.5 -11.5t19 3l-15 -70q-28 -13 -56 -13q-39 0 -60.5 17t-15.5 54h-2q-60 -79 -150 -79q-139 0 -109 151
q9 43 23.5 73t37.5 48t44 27.5t55 20.5l89 23q35 9 52 22.5t25 46.5q18 80 -57 80q-49 0 -71.5 -28t-32.5 -75h-102q19 90 71.5 133.5t154.5 43.5q77 0 117.5 -32t26.5 -100zM224 626l23 108h96l-23 -108h-96zM390 626l23 108h96l-23 -108h-96z" />
    <glyph glyph-name="aring" unicode="&#xe5;" horiz-adv-x="463" 
d="M343 194l19 90q-19 -13 -69 -28.5t-62 -21.5q-49 -21 -62 -87q-7 -36 5.5 -58.5t44.5 -22.5q48 0 79.5 33.5t44.5 94.5zM492 420l-64 -308q-3 -15 2.5 -26.5t17.5 -11.5t19 3l-15 -70q-28 -13 -56 -13q-39 0 -60.5 17t-15.5 54h-2q-60 -79 -150 -79q-139 0 -109 151
q9 43 23.5 73t37.5 48t44 27.5t55 20.5l89 23q35 9 52 22.5t25 46.5q18 80 -57 80q-49 0 -71.5 -28t-32.5 -75h-102q19 90 71.5 133.5t154.5 43.5q77 0 117.5 -32t26.5 -100zM258 696q8 45 45.5 74.5t82.5 29.5t69 -29.5t15 -74.5q-11 -45 -47 -74.5t-81 -29.5t-69 29.5
t-15 74.5zM308 696q-5 -23 8 -40t36 -17t43 17t25 40t-8.5 40t-36.5 17t-42.5 -16.5t-24.5 -40.5z" />
    <glyph glyph-name="ae" unicode="&#xe6;" horiz-adv-x="704" 
d="M335 191l18 85q-18 -16 -85 -32q-54 -15 -72 -37.5t-28 -65.5q-6 -31 6 -53t41 -22q94 0 120 125zM720 255h-269l-8 -38q-31 -153 46 -157q82 0 111 120h102q-18 -89 -80 -141.5t-149 -52.5q-37 1 -62.5 11t-38.5 28.5t-17 29t-9 29.5q-30 -47 -73 -72.5t-92 -25.5
q-66 0 -101.5 37.5t-20.5 113.5q16 78 56 112t111 53l90 22q28 6 41 21.5t20 52.5q18 80 -49 80q-49 0 -71.5 -28t-32.5 -75h-102q19 90 71.5 133.5t154.5 43.5q91 0 112 -69q54 67 146 69q66 0 99.5 -29t37 -82.5t-11.5 -128.5zM467 329h160l6 29q25 120 -53 120
q-43 0 -71.5 -41.5t-36.5 -84.5z" />
    <glyph glyph-name="ccedilla" unicode="&#xe7;" horiz-adv-x="444" 
d="M353 196h102q-21 -77 -53.5 -125.5t-86.5 -70.5q-33 -12 -69 -13l-41 -47q18 5 41 5q33 0 51 -22t11 -52q-12 -46 -44.5 -69.5t-90.5 -24.5q-59 0 -97 19l24 40q28 -13 63 -13q56 0 64 40q3 17 -8 27.5t-30 10.5q-11 0 -40 -8l-15 17l63 78q-38 5 -62 18q-91 56 -49 263
q28 137 88.5 210t170.5 73q46 1 78.5 -13t47 -34.5t20.5 -48.5t5 -50.5t-6 -46.5h-108q4 26 5 52t-14 44t-44 17q-54 0 -84.5 -52t-50.5 -151q-10 -49 -13.5 -82.5t0 -63t19.5 -43.5t44 -14q43 -1 69.5 32.5t39.5 97.5z" />
    <glyph glyph-name="egrave" unicode="&#xe8;" horiz-adv-x="463" 
d="M213 329h173l6 29q25 120 -58 120q-87 0 -119 -138zM479 255h-281l-7 -31q-36 -164 56 -164q82 0 111 120h102q-18 -89 -80 -141.5t-149 -52.5q-25 0 -44.5 3.5t-42 12.5t-36.5 28.5t-23.5 48.5t-8 75.5t14.5 106.5q12 59 29.5 106t47 91.5t76 69t106.5 24.5
q106 0 136 -60.5t4 -179.5zM351 608l-76 144h120l30 -144h-74z" />
    <glyph glyph-name="eacute" unicode="&#xe9;" horiz-adv-x="463" 
d="M213 329h173l6 29q25 120 -58 120q-87 0 -119 -138zM479 255h-281l-7 -31q-36 -164 56 -164q82 0 111 120h102q-18 -89 -80 -141.5t-149 -52.5q-25 0 -44.5 3.5t-42 12.5t-36.5 28.5t-23.5 48.5t-8 75.5t14.5 106.5q12 59 29.5 106t47 91.5t76 69t106.5 24.5
q106 0 136 -60.5t4 -179.5zM318 608l90 144h120l-136 -144h-74z" />
    <glyph glyph-name="ecircumflex" unicode="&#xea;" horiz-adv-x="463" 
d="M213 329h173l6 29q25 120 -58 120q-87 0 -119 -138zM479 255h-281l-7 -31q-36 -164 56 -164q82 0 111 120h102q-18 -89 -80 -141.5t-149 -52.5q-25 0 -44.5 3.5t-42 12.5t-36.5 28.5t-23.5 48.5t-8 75.5t14.5 106.5q12 59 29.5 106t47 91.5t76 69t106.5 24.5
q106 0 136 -60.5t4 -179.5zM215 608l121 144h108l59 -144h-91l-36 88l-75 -88h-86z" />
    <glyph glyph-name="edieresis" unicode="&#xeb;" horiz-adv-x="463" 
d="M213 329h173l6 29q25 120 -58 120q-87 0 -119 -138zM479 255h-281l-7 -31q-36 -164 56 -164q82 0 111 120h102q-18 -89 -80 -141.5t-149 -52.5q-25 0 -44.5 3.5t-42 12.5t-36.5 28.5t-23.5 48.5t-8 75.5t14.5 106.5q12 59 29.5 106t47 91.5t76 69t106.5 24.5
q106 0 136 -60.5t4 -179.5zM228 626l23 108h96l-23 -108h-96zM394 626l23 108h96l-23 -108h-96z" />
    <glyph glyph-name="igrave" unicode="&#xec;" 
d="M57 0l111 538h108l-111 -538h-108zM209 608l-76 144h120l30 -144h-74z" />
    <glyph glyph-name="iacute" unicode="&#xed;" 
d="M57 0l111 538h108l-111 -538h-108zM181 608l90 144h120l-136 -144h-74z" />
    <glyph glyph-name="icircumflex" unicode="&#xee;" 
d="M57 0l111 538h108l-111 -538h-108zM94 608l121 144h108l59 -144h-91l-36 88l-75 -88h-86z" />
    <glyph glyph-name="idieresis" unicode="&#xef;" 
d="M57 0l111 538h108l-111 -538h-108zM106 626l23 108h96l-23 -108h-96zM272 626l23 108h96l-23 -108h-96z" />
    <glyph glyph-name="eth" unicode="&#xf0;" horiz-adv-x="463" 
d="M218 598l-29 36l96 47q-26 30 -53 52l88 43q13 -9 55 -51l101 49l25 -36l-96 -47q79 -93 96 -186.5t-14 -235.5q-59 -283 -259 -283q-155 0 -155 168q0 54 13 115q59 269 240 269q52 0 75 -33l3 2q-33 68 -89 139zM194 269q-25 -103 -15 -153t65 -50q56 0 83 45.5
t52 157.5q9 44 12 74.5t-0.5 58.5t-19.5 42t-45 14q-54 0 -84 -50t-48 -139z" />
    <glyph glyph-name="ntilde" unicode="&#xf1;" horiz-adv-x="481" 
d="M52 0l111 538h102l-13 -63h3q59 77 154 77q136 0 104 -146l-84 -406h-108l76 369q11 53 -1.5 75t-53.5 22q-36 0 -66 -27.5t-41 -77.5l-75 -361h-108zM474 742h62q-7 -39 -39.5 -78.5t-71.5 -39.5q-24 0 -61 17.5t-51 17.5q-16 0 -27.5 -11.5t-15.5 -28.5h-62
q7 41 41.5 80.5t84.5 39.5q10 0 50 -17q34 -18 52 -18q30 0 38 38z" />
    <glyph glyph-name="ograve" unicode="&#xf2;" horiz-adv-x="463" 
d="M194 269q-25 -103 -15 -153t65 -50q56 0 83 45.5t52 157.5q10 50 13.5 83t0.5 62.5t-19 43.5t-45 14q-54 0 -84.5 -52t-50.5 -151zM86 269q28 137 88.5 210t170.5 73q76 0 114.5 -36t41 -99t-13.5 -148q-59 -283 -259 -283q-155 0 -155 168q0 54 13 115zM325 608l-76 144
h120l30 -144h-74z" />
    <glyph glyph-name="oacute" unicode="&#xf3;" horiz-adv-x="463" 
d="M194 269q-25 -103 -15 -153t65 -50q56 0 83 45.5t52 157.5q10 50 13.5 83t0.5 62.5t-19 43.5t-45 14q-54 0 -84.5 -52t-50.5 -151zM86 269q28 137 88.5 210t170.5 73q76 0 114.5 -36t41 -99t-13.5 -148q-59 -283 -259 -283q-155 0 -155 168q0 54 13 115zM318 608l90 144
h120l-136 -144h-74z" />
    <glyph glyph-name="ocircumflex" unicode="&#xf4;" horiz-adv-x="463" 
d="M194 269q-25 -103 -15 -153t65 -50q56 0 83 45.5t52 157.5q10 50 13.5 83t0.5 62.5t-19 43.5t-45 14q-54 0 -84.5 -52t-50.5 -151zM86 269q28 137 88.5 210t170.5 73q76 0 114.5 -36t41 -99t-13.5 -148q-59 -283 -259 -283q-155 0 -155 168q0 54 13 115zM218 608l121 144
h108l59 -144h-91l-36 88l-75 -88h-86z" />
    <glyph glyph-name="otilde" unicode="&#xf5;" horiz-adv-x="463" 
d="M194 269q-25 -103 -15 -153t65 -50q56 0 83 45.5t52 157.5q10 50 13.5 83t0.5 62.5t-19 43.5t-45 14q-54 0 -84.5 -52t-50.5 -151zM86 269q28 137 88.5 210t170.5 73q76 0 114.5 -36t41 -99t-13.5 -148q-59 -283 -259 -283q-155 0 -155 168q0 54 13 115zM464 742h62
q-7 -39 -39.5 -78.5t-71.5 -39.5q-24 0 -61 17.5t-51 17.5q-16 0 -27.5 -11.5t-15.5 -28.5h-62q7 41 41.5 80.5t84.5 39.5q10 0 50 -17q34 -18 52 -18q30 0 38 38z" />
    <glyph glyph-name="odieresis" unicode="&#xf6;" horiz-adv-x="463" 
d="M194 269q-25 -103 -15 -153t65 -50q56 0 83 45.5t52 157.5q10 50 13.5 83t0.5 62.5t-19 43.5t-45 14q-54 0 -84.5 -52t-50.5 -151zM86 269q28 137 88.5 210t170.5 73q76 0 114.5 -36t41 -99t-13.5 -148q-59 -283 -259 -283q-155 0 -155 168q0 54 13 115zM225 626l23 108
h96l-23 -108h-96zM391 626l23 108h96l-23 -108h-96z" />
    <glyph glyph-name="divide" unicode="&#xf7;" horiz-adv-x="600" 
d="M323 458q6 30 31.5 51t55.5 21t46.5 -21t10.5 -51q-7 -30 -32 -51t-55 -21t-47 21t-10 51zM90 210l18 86h506l-18 -86h-506zM237 48q7 30 32 51t55 21t47 -21t10 -51q-6 -30 -31 -51t-55 -21t-47 21t-11 51z" />
    <glyph glyph-name="oslash" unicode="&#xf8;" horiz-adv-x="463" 
d="M51 -36l50 74q-50 63 -15 231q28 137 88.5 210t170.5 73q54 0 89 -20l44 65l42 -26l-47 -70q51 -65 14 -232q-29 -137 -88.5 -210t-170.5 -73q-55 0 -89 19l-45 -67zM394 386l-199 -298q16 -22 49 -22q55 0 85 51.5t50 151.5q15 66 17 117h-2zM179 153l200 297
q-16 22 -50 22q-54 0 -84.5 -52t-50.5 -151q-12 -57 -17 -116h2z" />
    <glyph glyph-name="ugrave" unicode="&#xf9;" horiz-adv-x="481" 
d="M327 0l13 63h-3q-59 -77 -154 -77q-65 0 -91.5 39t-6.5 137l78 376h108l-80 -386q-9 -44 5 -62t51 -18q38 0 68 23.5t39 66.5l78 376h108l-111 -538h-102zM335 608l-76 144h120l30 -144h-74z" />
    <glyph glyph-name="uacute" unicode="&#xfa;" horiz-adv-x="481" 
d="M327 0l13 63h-3q-59 -77 -154 -77q-65 0 -91.5 39t-6.5 137l78 376h108l-80 -386q-9 -44 5 -62t51 -18q38 0 68 23.5t39 66.5l78 376h108l-111 -538h-102zM325 608l90 144h120l-136 -144h-74z" />
    <glyph glyph-name="ucircumflex" unicode="&#xfb;" horiz-adv-x="481" 
d="M327 0l13 63h-3q-59 -77 -154 -77q-65 0 -91.5 39t-6.5 137l78 376h108l-80 -386q-9 -44 5 -62t51 -18q38 0 68 23.5t39 66.5l78 376h108l-111 -538h-102zM222 608l121 144h108l59 -144h-91l-36 88l-75 -88h-86z" />
    <glyph glyph-name="udieresis" unicode="&#xfc;" horiz-adv-x="481" 
d="M327 0l13 63h-3q-59 -77 -154 -77q-65 0 -91.5 39t-6.5 137l78 376h108l-80 -386q-9 -44 5 -62t51 -18q38 0 68 23.5t39 66.5l78 376h108l-111 -538h-102zM233 626l23 108h96l-23 -108h-96zM399 626l23 108h96l-23 -108h-96z" />
    <glyph glyph-name="yacute" unicode="&#xfd;" horiz-adv-x="426" 
d="M119 538h116l9 -404h2l170 404h113l-264 -558q-36 -74 -66 -109t-63.5 -46t-92.5 -9q-22 0 -42 4l18 86q16 -4 34 -4q30 0 49.5 8.5t32.5 33.5l23 44zM305 608l90 144h120l-136 -144h-74z" />
    <glyph glyph-name="thorn" unicode="&#xfe;" horiz-adv-x="481" 
d="M211 275q-24 -97 -14.5 -150t63.5 -53q48 0 78 43t53 152q22 91 12.5 145t-62.5 54t-81.5 -47.5t-48.5 -143.5zM15 -176l185 890h108l-50 -239h2q50 77 138 77q164 0 106 -290q-33 -153 -94 -214.5t-129 -61.5q-88 0 -106 77h-2l-50 -239h-108z" />
    <glyph glyph-name="ydieresis" unicode="&#xff;" horiz-adv-x="426" 
d="M119 538h116l9 -404h2l170 404h113l-264 -558q-36 -74 -66 -109t-63.5 -46t-92.5 -9q-22 0 -42 4l18 86q16 -4 34 -4q30 0 49.5 8.5t32.5 33.5l23 44zM206 626l23 108h96l-23 -108h-96zM372 626l23 108h96l-23 -108h-96z" />
    <glyph glyph-name="Amacron" unicode="&#x100;" horiz-adv-x="519" 
d="M-9 0l351 714h146l40 -714h-119l-8 175h-209l-82 -175h-119zM232 266h169l-9 352h-2zM292 865h282l-13 -62h-282z" />
    <glyph glyph-name="amacron" unicode="&#x101;" horiz-adv-x="463" 
d="M343 194l19 90q-19 -13 -69 -28.5t-62 -21.5q-49 -21 -62 -87q-7 -36 5.5 -58.5t44.5 -22.5q48 0 79.5 33.5t44.5 94.5zM492 420l-64 -308q-3 -15 2.5 -26.5t17.5 -11.5t19 3l-15 -70q-28 -13 -56 -13q-39 0 -60.5 17t-15.5 54h-2q-60 -79 -150 -79q-139 0 -109 151
q9 43 23.5 73t37.5 48t44 27.5t55 20.5l89 23q35 9 52 22.5t25 46.5q18 80 -57 80q-49 0 -71.5 -28t-32.5 -75h-102q19 90 71.5 133.5t154.5 43.5q77 0 117.5 -32t26.5 -100zM228 711h282l-13 -62h-282z" />
    <glyph glyph-name="Abreve" unicode="&#x102;" horiz-adv-x="519" 
d="M-9 0l351 714h146l40 -714h-119l-8 175h-209l-82 -175h-119zM232 266h169l-9 352h-2zM303 902h62q-5 -22 10 -44.5t47 -22.5t56 22.5t29 44.5h62q-12 -58 -55.5 -96.5t-105.5 -38.5t-89.5 38.5t-15.5 96.5z" />
    <glyph glyph-name="abreve" unicode="&#x103;" horiz-adv-x="463" 
d="M343 194l19 90q-19 -13 -69 -28.5t-62 -21.5q-49 -21 -62 -87q-7 -36 5.5 -58.5t44.5 -22.5q48 0 79.5 33.5t44.5 94.5zM492 420l-64 -308q-3 -15 2.5 -26.5t17.5 -11.5t19 3l-15 -70q-28 -13 -56 -13q-39 0 -60.5 17t-15.5 54h-2q-60 -79 -150 -79q-139 0 -109 151
q9 43 23.5 73t37.5 48t44 27.5t55 20.5l89 23q35 9 52 22.5t25 46.5q18 80 -57 80q-49 0 -71.5 -28t-32.5 -75h-102q19 90 71.5 133.5t154.5 43.5q77 0 117.5 -32t26.5 -100zM243 748h62q-5 -22 10 -44.5t47 -22.5t56 22.5t29 44.5h62q-12 -58 -55.5 -96.5t-105.5 -38.5
t-89.5 38.5t-15.5 96.5z" />
    <glyph glyph-name="Aogonek" unicode="&#x104;" horiz-adv-x="519" 
d="M528 0h-69q-78 -74 -90 -124q-11 -47 24 -47q18 0 55 19l21 -34q-54 -37 -111 -37q-38 0 -60.5 21t-11.5 65q8 32 42 69t81 68l-8 175h-209l-82 -175h-119l351 714h146zM232 266h169l-9 352h-2z" />
    <glyph glyph-name="aogonek" unicode="&#x105;" horiz-adv-x="463" 
d="M492 420l-64 -308q-3 -15 2.5 -26.5t17.5 -11.5t19 3l-15 -70q-28 -13 -56 -13q-8 0 -12 1q-41 -41 -58 -68q-21 -34 -25 -53q-11 -48 26 -48q24 0 56 15l21 -34q-52 -30 -104 -30q-96 0 -82 85q7 32 43 71q30 33 83 72q-3 1 -7 5q-23 17 -17 55h-2q-60 -79 -150 -79
q-139 0 -109 151q9 43 23.5 73t37.5 48t44 27.5t55 20.5l89 23q35 9 52 22.5t25 46.5q18 80 -57 80q-49 0 -71.5 -28t-32.5 -75h-102q19 90 71.5 133.5t154.5 43.5q77 0 117.5 -32t26.5 -100zM343 194l19 90q-19 -13 -69 -28.5t-62 -21.5q-49 -21 -62 -87q-7 -36 5.5 -58.5
t44.5 -22.5q48 0 79.5 33.5t44.5 94.5z" />
    <glyph glyph-name="Cacute" unicode="&#x106;" horiz-adv-x="519" 
d="M437 256h114l-3 -15q-11 -51 -31 -94.5t-52.5 -81t-81 -58.5t-108.5 -21q-132 0 -167 90t8 281q41 197 111.5 284t202.5 87q216 0 168 -224l-2 -13h-114l2 12q5 35 5.5 66.5t-19.5 52.5t-59 20q-44 0 -74 -22t-56.5 -84.5t-50.5 -175.5q-33 -172 -18 -230t80 -58
q109 0 142 172zM393 762l90 144h120l-136 -144h-74z" />
    <glyph glyph-name="cacute" unicode="&#x107;" horiz-adv-x="444" 
d="M353 196h102q-28 -104 -80 -157t-147 -53q-75 0 -113.5 36t-41.5 99t13 148q28 137 88.5 210t170.5 73q46 1 78.5 -13t47 -34.5t20.5 -48.5t5 -50.5t-6 -46.5h-108q4 26 5 52t-14 44t-44 17q-54 0 -84.5 -52t-50.5 -151q-10 -49 -13.5 -82.5t0 -63t19.5 -43.5t44 -14
q43 -1 69.5 32.5t39.5 97.5zM319 608l90 144h120l-136 -144h-74z" />
    <glyph glyph-name="Ccircumflex" unicode="&#x108;" horiz-adv-x="519" 
d="M437 256h114l-3 -15q-11 -51 -31 -94.5t-52.5 -81t-81 -58.5t-108.5 -21q-132 0 -167 90t8 281q41 197 111.5 284t202.5 87q216 0 168 -224l-2 -13h-114l2 12q5 35 5.5 66.5t-19.5 52.5t-59 20q-44 0 -74 -22t-56.5 -84.5t-50.5 -175.5q-33 -172 -18 -230t80 -58
q109 0 142 172zM288 762l121 144h108l59 -144h-91l-36 88l-75 -88h-86z" />
    <glyph glyph-name="ccircumflex" unicode="&#x109;" horiz-adv-x="444" 
d="M353 196h102q-28 -104 -80 -157t-147 -53q-75 0 -113.5 36t-41.5 99t13 148q28 137 88.5 210t170.5 73q46 1 78.5 -13t47 -34.5t20.5 -48.5t5 -50.5t-6 -46.5h-108q4 26 5 52t-14 44t-44 17q-54 0 -84.5 -52t-50.5 -151q-10 -49 -13.5 -82.5t0 -63t19.5 -43.5t44 -14
q43 -1 69.5 32.5t39.5 97.5zM208 608l121 144h108l59 -144h-91l-36 88l-75 -88h-86z" />
    <glyph glyph-name="Cdotaccent" unicode="&#x10a;" horiz-adv-x="519" 
d="M437 256h114l-3 -15q-11 -51 -31 -94.5t-52.5 -81t-81 -58.5t-108.5 -21q-132 0 -167 90t8 281q41 197 111.5 284t202.5 87q216 0 168 -224l-2 -13h-114l2 12q5 35 5.5 66.5t-19.5 52.5t-59 20q-44 0 -74 -22t-56.5 -84.5t-50.5 -175.5q-33 -172 -18 -230t80 -58
q109 0 142 172zM388 780l23 108h96l-23 -108h-96z" />
    <glyph glyph-name="cdotaccent" unicode="&#x10b;" horiz-adv-x="444" 
d="M353 196h102q-28 -104 -80 -157t-147 -53q-75 0 -113.5 36t-41.5 99t13 148q28 137 88.5 210t170.5 73q46 1 78.5 -13t47 -34.5t20.5 -48.5t5 -50.5t-6 -46.5h-108q4 26 5 52t-14 44t-44 17q-54 0 -84.5 -52t-50.5 -151q-10 -49 -13.5 -82.5t0 -63t19.5 -43.5t44 -14
q43 -1 69.5 32.5t39.5 97.5zM310 626l23 108h96l-23 -108h-96z" />
    <glyph glyph-name="Ccaron" unicode="&#x10c;" horiz-adv-x="519" 
d="M437 256h114l-3 -15q-11 -51 -31 -94.5t-52.5 -81t-81 -58.5t-108.5 -21q-132 0 -167 90t8 281q41 197 111.5 284t202.5 87q216 0 168 -224l-2 -13h-114l2 12q5 35 5.5 66.5t-19.5 52.5t-59 20q-44 0 -74 -22t-56.5 -84.5t-50.5 -175.5q-33 -172 -18 -230t80 -58
q109 0 142 172zM380 762l-59 144h91l36 -88l75 88h86l-121 -144h-108z" />
    <glyph glyph-name="ccaron" unicode="&#x10d;" horiz-adv-x="444" 
d="M353 196h102q-28 -104 -80 -157t-147 -53q-75 0 -113.5 36t-41.5 99t13 148q28 137 88.5 210t170.5 73q46 1 78.5 -13t47 -34.5t20.5 -48.5t5 -50.5t-6 -46.5h-108q4 26 5 52t-14 44t-44 17q-54 0 -84.5 -52t-50.5 -151q-10 -49 -13.5 -82.5t0 -63t19.5 -43.5t44 -14
q43 -1 69.5 32.5t39.5 97.5zM297 608l-59 144h91l36 -88l75 88h86l-121 -144h-108z" />
    <glyph glyph-name="Dcaron" unicode="&#x10e;" horiz-adv-x="556" 
d="M59 0l148 714h203q55 0 94 -11t61.5 -35t34 -53t11.5 -72.5t-5.5 -85t-17.5 -100.5q-19 -90 -39 -146.5t-56 -109t-93 -77t-138 -24.5h-203zM303 628l-113 -542h94q72 0 114 58.5t76 212.5q32 151 14.5 211t-91.5 60h-94zM340 762l-59 144h91l36 -88l75 88h86l-121 -144
h-108z" />
    <glyph glyph-name="dcaron" unicode="&#x10f;" horiz-adv-x="603" 
d="M381 263q24 97 13.5 150t-69.5 53q-46 0 -74 -43.5t-50 -151.5q-23 -91 -13.5 -145t62.5 -54t82 47.5t49 143.5zM327 0l13 66h-2q-48 -80 -134 -80q-179 0 -116 290q18 86 43.5 143.5t56.5 85t59.5 37.5t63.5 10q88 0 106 -77h2l50 239h108l-148 -714h-102zM592 570
l54 144h105l-89 -144h-70z" />
    <glyph glyph-name="Dcroat" unicode="&#x110;" horiz-adv-x="556" 
d="M190 86h94q72 0 114 58.5t76 212.5q32 151 14.5 211t-91.5 60h-94l-45 -215h119l-16 -80h-119zM59 0l69 333h-59l16 80h59l63 301h203q55 0 94 -11t61.5 -35t34 -53t11.5 -72.5t-5.5 -85t-17.5 -100.5q-19 -90 -39 -146.5t-56 -109t-93 -77t-138 -24.5h-203z" />
    <glyph glyph-name="dcroat" unicode="&#x111;" horiz-adv-x="501" 
d="M327 0l13 66h-2q-48 -80 -134 -80q-179 0 -116 290q18 86 43.5 143.5t56.5 85t59.5 37.5t63.5 10q88 0 106 -77h2l24 114h-99l12 52h98l15 73h108l-15 -73h84l-12 -52h-83l-122 -589h-102zM381 263q24 97 13.5 150t-69.5 53q-46 0 -74 -43.5t-50 -151.5
q-23 -91 -13.5 -145t62.5 -54t82 47.5t49 143.5z" />
    <glyph glyph-name="Emacron" unicode="&#x112;" horiz-adv-x="481" 
d="M59 0l148 714h386l-20 -96h-272l-41 -198h256l-20 -96h-256l-48 -228h280l-19 -96h-394zM287 865h282l-13 -62h-282z" />
    <glyph glyph-name="emacron" unicode="&#x113;" horiz-adv-x="463" 
d="M213 329h173l6 29q25 120 -58 120q-87 0 -119 -138zM479 255h-281l-7 -31q-36 -164 56 -164q82 0 111 120h102q-18 -89 -80 -141.5t-149 -52.5q-25 0 -44.5 3.5t-42 12.5t-36.5 28.5t-23.5 48.5t-8 75.5t14.5 106.5q12 59 29.5 106t47 91.5t76 69t106.5 24.5
q106 0 136 -60.5t4 -179.5zM236 711h282l-13 -62h-282z" />
    <glyph glyph-name="Ebreve" unicode="&#x114;" horiz-adv-x="481" 
d="M59 0l148 714h386l-20 -96h-272l-41 -198h256l-20 -96h-256l-48 -228h280l-19 -96h-394zM294 902h62q-5 -22 10 -44.5t47 -22.5t56 22.5t29 44.5h62q-12 -58 -55.5 -96.5t-105.5 -38.5t-89.5 38.5t-15.5 96.5z" />
    <glyph glyph-name="ebreve" unicode="&#x115;" horiz-adv-x="463" 
d="M213 329h173l6 29q25 120 -58 120q-87 0 -119 -138zM479 255h-281l-7 -31q-36 -164 56 -164q82 0 111 120h102q-18 -89 -80 -141.5t-149 -52.5q-25 0 -44.5 3.5t-42 12.5t-36.5 28.5t-23.5 48.5t-8 75.5t14.5 106.5q12 59 29.5 106t47 91.5t76 69t106.5 24.5
q106 0 136 -60.5t4 -179.5zM248 748h62q-5 -22 10 -44.5t47 -22.5t56 22.5t29 44.5h62q-12 -58 -55.5 -96.5t-105.5 -38.5t-89.5 38.5t-15.5 96.5z" />
    <glyph glyph-name="Edotaccent" unicode="&#x116;" horiz-adv-x="481" 
d="M59 0l148 714h386l-20 -96h-272l-41 -198h256l-20 -96h-256l-48 -228h280l-19 -96h-394zM358 780l23 108h96l-23 -108h-96z" />
    <glyph glyph-name="edotaccent" unicode="&#x117;" horiz-adv-x="463" 
d="M213 329h173l6 29q25 120 -58 120q-87 0 -119 -138zM479 255h-281l-7 -31q-36 -164 56 -164q82 0 111 120h102q-18 -89 -80 -141.5t-149 -52.5q-25 0 -44.5 3.5t-42 12.5t-36.5 28.5t-23.5 48.5t-8 75.5t14.5 106.5q12 59 29.5 106t47 91.5t76 69t106.5 24.5
q106 0 136 -60.5t4 -179.5zM311 626l23 108h96l-23 -108h-96z" />
    <glyph glyph-name="Eogonek" unicode="&#x118;" horiz-adv-x="481" 
d="M453 0h-56q-78 -74 -90 -124q-11 -47 24 -47q18 0 55 19l21 -34q-54 -37 -111 -37q-38 0 -60.5 21t-11.5 65q8 32 42 69t81 68h-288l148 714h386l-20 -96h-272l-41 -198h256l-20 -96h-256l-48 -228h280z" />
    <glyph glyph-name="eogonek" unicode="&#x119;" horiz-adv-x="463" 
d="M479 255h-281l-7 -31q-36 -164 56 -164q82 0 111 120h102q-13 -67 -52 -113.5t-96 -66.5q-13 -5 -34 -10q-35 -34 -54 -62q-21 -32 -25 -52q-11 -47 24 -47q18 0 55 19l21 -34q-54 -37 -111 -37q-38 0 -60.5 21t-11.5 65q7 32 43 71q32 32 60 52q-23 1 -55 8
q-34 8 -55.5 35t-30 84.5t12.5 147.5q12 59 29.5 106t47 91.5t76 69t106.5 24.5q106 0 136 -60.5t4 -179.5zM213 329h173l6 29q25 120 -58 120q-87 0 -119 -138z" />
    <glyph glyph-name="Ecaron" unicode="&#x11a;" horiz-adv-x="481" 
d="M59 0l148 714h386l-20 -96h-272l-41 -198h256l-20 -96h-256l-48 -228h280l-19 -96h-394zM350 762l-59 144h91l36 -88l75 88h86l-121 -144h-108z" />
    <glyph glyph-name="ecaron" unicode="&#x11b;" horiz-adv-x="463" 
d="M213 329h173l6 29q25 120 -58 120q-87 0 -119 -138zM479 255h-281l-7 -31q-36 -164 56 -164q82 0 111 120h102q-18 -89 -80 -141.5t-149 -52.5q-25 0 -44.5 3.5t-42 12.5t-36.5 28.5t-23.5 48.5t-8 75.5t14.5 106.5q12 59 29.5 106t47 91.5t76 69t106.5 24.5
q106 0 136 -60.5t4 -179.5zM303 608l-59 144h91l36 -88l75 88h86l-121 -144h-108z" />
    <glyph glyph-name="Gcircumflex" unicode="&#x11c;" horiz-adv-x="537" 
d="M412 0l17 83h-2q-35 -52 -74.5 -74.5t-101.5 -22.5q-115 0 -146 90t11 281q40 192 115.5 281.5t198.5 89.5q90 0 130.5 -43.5t40.5 -103.5q0 -32 -5 -59l-3 -13h-108l4 17q10 47 -6.5 81.5t-69.5 34.5q-65 0 -107 -59.5t-76 -222.5q-33 -172 -19.5 -230t74.5 -58
q65 0 103 50t62 168h-120l18 86h228l-78 -376h-86zM292 762l121 144h108l59 -144h-91l-36 88l-75 -88h-86z" />
    <glyph glyph-name="gcircumflex" unicode="&#x11d;" horiz-adv-x="481" 
d="M211 286q-6 -30 -9 -47.5t-6 -43.5t-0.5 -42t8 -32t18.5 -23.5t32 -7.5q24 0 44.5 12.5t33.5 30t24.5 45.5t17.5 50t13 53q40 185 -48 185q-54 0 -81 -45.5t-47 -134.5zM48 -46h102q-5 -26 12.5 -45t52.5 -19q42 0 72 27t40 74l18 87h-2q-23 -35 -60.5 -54.5t-77.5 -19.5
q-163 0 -104 271q56 277 228 277q45 0 72.5 -24t29.5 -56h2l13 66h102l-106 -512q-43 -210 -245 -210q-81 0 -116.5 29t-35.5 69q0 24 3 40zM237 608l121 144h108l59 -144h-91l-36 88l-75 -88h-86z" />
    <glyph glyph-name="Gbreve" unicode="&#x11e;" horiz-adv-x="537" 
d="M412 0l17 83h-2q-35 -52 -74.5 -74.5t-101.5 -22.5q-115 0 -146 90t11 281q40 192 115.5 281.5t198.5 89.5q90 0 130.5 -43.5t40.5 -103.5q0 -32 -5 -59l-3 -13h-108l4 17q10 47 -6.5 81.5t-69.5 34.5q-65 0 -107 -59.5t-76 -222.5q-33 -172 -19.5 -230t74.5 -58
q65 0 103 50t62 168h-120l18 86h228l-78 -376h-86zM331 902h62q-5 -22 10 -44.5t47 -22.5t56 22.5t29 44.5h62q-12 -58 -55.5 -96.5t-105.5 -38.5t-89.5 38.5t-15.5 96.5z" />
    <glyph glyph-name="gbreve" unicode="&#x11f;" horiz-adv-x="481" 
d="M211 286q-6 -30 -9 -47.5t-6 -43.5t-0.5 -42t8 -32t18.5 -23.5t32 -7.5q24 0 44.5 12.5t33.5 30t24.5 45.5t17.5 50t13 53q40 185 -48 185q-54 0 -81 -45.5t-47 -134.5zM48 -46h102q-5 -26 12.5 -45t52.5 -19q42 0 72 27t40 74l18 87h-2q-23 -35 -60.5 -54.5t-77.5 -19.5
q-163 0 -104 271q56 277 228 277q45 0 72.5 -24t29.5 -56h2l13 66h102l-106 -512q-43 -210 -245 -210q-81 0 -116.5 29t-35.5 69q0 24 3 40zM271 748h62q-5 -22 10 -44.5t47 -22.5t56 22.5t29 44.5h62q-12 -58 -55.5 -96.5t-105.5 -38.5t-89.5 38.5t-15.5 96.5z" />
    <glyph glyph-name="Gdotaccent" unicode="&#x120;" horiz-adv-x="537" 
d="M412 0l17 83h-2q-35 -52 -74.5 -74.5t-101.5 -22.5q-115 0 -146 90t11 281q40 192 115.5 281.5t198.5 89.5q90 0 130.5 -43.5t40.5 -103.5q0 -32 -5 -59l-3 -13h-108l4 17q10 47 -6.5 81.5t-69.5 34.5q-65 0 -107 -59.5t-76 -222.5q-33 -172 -19.5 -230t74.5 -58
q65 0 103 50t62 168h-120l18 86h228l-78 -376h-86zM396 780l23 108h96l-23 -108h-96z" />
    <glyph glyph-name="gdotaccent" unicode="&#x121;" horiz-adv-x="481" 
d="M211 286q-6 -30 -9 -47.5t-6 -43.5t-0.5 -42t8 -32t18.5 -23.5t32 -7.5q24 0 44.5 12.5t33.5 30t24.5 45.5t17.5 50t13 53q40 185 -48 185q-54 0 -81 -45.5t-47 -134.5zM48 -46h102q-5 -26 12.5 -45t52.5 -19q42 0 72 27t40 74l18 87h-2q-23 -35 -60.5 -54.5t-77.5 -19.5
q-163 0 -104 271q56 277 228 277q45 0 72.5 -24t29.5 -56h2l13 66h102l-106 -512q-43 -210 -245 -210q-81 0 -116.5 29t-35.5 69q0 24 3 40zM336 626l23 108h96l-23 -108h-96z" />
    <glyph glyph-name="Gcommaaccent" unicode="&#x122;" horiz-adv-x="537" 
d="M412 0l17 83h-2q-35 -52 -74.5 -74.5t-101.5 -22.5q-115 0 -146 90t11 281q40 192 115.5 281.5t198.5 89.5q90 0 130.5 -43.5t40.5 -103.5q0 -32 -5 -59l-3 -13h-108l4 17q10 47 -6.5 81.5t-69.5 34.5q-65 0 -107 -59.5t-76 -222.5q-33 -172 -19.5 -230t74.5 -58
q65 0 103 50t62 168h-120l18 86h228l-78 -376h-86zM205 -149l20 99h96l-18 -86q-9 -43 -34.5 -62.5t-69.5 -24.5l7 33q33 8 44 41h-45z" />
    <glyph glyph-name="gcommaaccent" unicode="&#x123;" horiz-adv-x="481" 
d="M211 286q-6 -30 -9 -47.5t-6 -43.5t-0.5 -42t8 -32t18.5 -23.5t32 -7.5q24 0 44.5 12.5t33.5 30t24.5 45.5t17.5 50t13 53q40 185 -48 185q-54 0 -81 -45.5t-47 -134.5zM48 -46h102q-5 -26 12.5 -45t52.5 -19q42 0 72 27t40 74l18 87h-2q-23 -35 -60.5 -54.5t-77.5 -19.5
q-163 0 -104 271q56 277 228 277q45 0 72.5 -24t29.5 -56h2l13 66h102l-106 -512q-43 -210 -245 -210q-81 0 -116.5 29t-35.5 69q0 24 3 40zM445 714l-21 -99h-96l18 86q9 43 35 62.5t69 24.5l-7 -33q-33 -8 -43 -41h45z" />
    <glyph glyph-name="Hcircumflex" unicode="&#x124;" horiz-adv-x="556" 
d="M59 0l148 714h114l-60 -286h210l60 286h114l-148 -714h-114l69 332h-210l-69 -332h-114zM287 762l121 144h108l59 -144h-91l-36 88l-75 -88h-86z" />
    <glyph glyph-name="hcircumflex" unicode="&#x125;" horiz-adv-x="481" 
d="M52 0l148 714h108l-49 -234l3 -2q61 74 147 74q136 0 104 -146l-84 -406h-108l76 369q11 53 -1.5 75t-53.5 22q-36 0 -66 -27.5t-41 -77.5l-75 -361h-108zM240 762l121 144h108l59 -144h-91l-36 88l-75 -88h-86z" />
    <glyph glyph-name="Hbar" unicode="&#x126;" horiz-adv-x="556" 
d="M59 0l148 714h114l-30 -145h210l30 145h114l-148 -714h-114l68 320h-210l-68 -320h-114zM259 416h210l21 101h-210z" />
    <glyph glyph-name="hbar" unicode="&#x127;" horiz-adv-x="501" 
d="M205 641l15 73h108l-15 -73h95l-12 -52h-94l-23 -109l3 -2q61 74 147 74q136 0 104 -146l-84 -406h-108l76 369q11 53 -1.5 75t-53.5 22q-36 0 -66 -27.5t-41 -77.5l-75 -361h-108l122 589h-86l12 52h85z" />
    <glyph glyph-name="Itilde" unicode="&#x128;" 
d="M54 0l148 714h114l-148 -714h-114zM380 896h62q-7 -39 -39.5 -78.5t-71.5 -39.5q-24 0 -61 17.5t-51 17.5q-16 0 -27.5 -11.5t-15.5 -28.5h-62q7 41 41.5 80.5t84.5 39.5q10 0 50 -17q34 -18 52 -18q30 0 38 38z" />
    <glyph glyph-name="itilde" unicode="&#x129;" 
d="M57 0l111 538h108l-111 -538h-108zM344 742h62q-7 -39 -39.5 -78.5t-71.5 -39.5q-24 0 -61 17.5t-51 17.5q-16 0 -27.5 -11.5t-15.5 -28.5h-62q7 41 41.5 80.5t84.5 39.5q10 0 50 -17q34 -18 52 -18q30 0 38 38z" />
    <glyph glyph-name="Imacron" unicode="&#x12a;" 
d="M54 0l148 714h114l-148 -714h-114zM142 865h282l-13 -62h-282z" />
    <glyph glyph-name="imacron" unicode="&#x12b;" 
d="M57 0l111 538h108l-111 -538h-108zM108 711h282l-13 -62h-282z" />
    <glyph glyph-name="Iogonek" unicode="&#x12e;" 
d="M316 714l-148 -714q-74 -74 -86 -124q-11 -47 23 -47q16 0 52 19l20 -34q-51 -37 -105 -37q-37 0 -58 21t-11 65q8 32 40.5 69t76.5 68h-66l148 714h114z" />
    <glyph glyph-name="iogonek" unicode="&#x12f;" 
d="M276 538l-111 -538q-74 -74 -86 -124q-11 -47 23 -47q16 0 52 19l20 -34q-51 -37 -105 -37q-37 0 -58 21t-11 65q8 32 40.5 69t76.5 68h-60l111 538h108zM184 614l23 108h108l-23 -108h-108z" />
    <glyph glyph-name="Idotaccent" unicode="&#x130;" 
d="M54 0l148 714h114l-148 -714h-114zM221 780l23 108h96l-23 -108h-96z" />
    <glyph glyph-name="dotlessi" unicode="&#x131;" 
d="M57 0l111 538h108l-111 -538h-108z" />
    <glyph glyph-name="Jcircumflex" unicode="&#x134;" horiz-adv-x="444" 
d="M60 215h108l-7 -35q-24 -108 53 -108q22 0 39 9t26.5 19t18.5 34t12 36t10 44l104 500h114l-108 -517q-43 -211 -235 -211q-181 0 -144 183zM344 762l121 144h108l59 -144h-91l-36 88l-75 -88h-86z" />
    <glyph glyph-name="jcircumflex" unicode="&#x135;" 
d="M168 538h108l-119 -573q-17 -81 -58.5 -115t-113.5 -34q-23 0 -46 3l17 83h25q31 0 46 15.5t24 57.5zM87 608l121 144h108l59 -144h-91l-36 88l-75 -88h-86z" />
    <glyph glyph-name="Kcommaaccent" unicode="&#x136;" horiz-adv-x="519" 
d="M59 0l148 714h114l-65 -311h2l281 311h125l-269 -301l143 -413h-129l-107 321l-81 -90l-48 -231h-114zM209 -149l20 99h96l-18 -86q-9 -43 -34.5 -62.5t-69.5 -24.5l7 33q33 8 44 41h-45z" />
    <glyph glyph-name="kcommaaccent" unicode="&#x137;" horiz-adv-x="463" 
d="M52 0l148 714h108l-83 -401h2l209 225l126 1l-206 -208l115 -331h-118l-82 245l-76 -74l-35 -171h-108zM182 -149l20 99h96l-18 -86q-9 -43 -34.5 -62.5t-69.5 -24.5l7 33q33 8 44 41h-45z" />
    <glyph glyph-name="Lacute" unicode="&#x139;" horiz-adv-x="444" 
d="M46 0l148 714h114l-129 -618h276l-19 -96h-390zM219 762l90 144h120l-136 -144h-74z" />
    <glyph glyph-name="lacute" unicode="&#x13a;" 
d="M57 0l148 714h108l-148 -714h-108zM215 762l90 144h120l-136 -144h-74z" />
    <glyph glyph-name="Lcommaaccent" unicode="&#x13b;" horiz-adv-x="444" 
d="M46 0l148 714h114l-129 -618h276l-19 -96h-390zM171 -149l20 99h96l-18 -86q-9 -43 -34.5 -62.5t-69.5 -24.5l7 33q33 8 44 41h-45z" />
    <glyph glyph-name="lcommaaccent" unicode="&#x13c;" 
d="M57 0l148 714h108l-148 -714h-108zM35 -149l20 99h96l-18 -86q-9 -43 -34.5 -62.5t-69.5 -24.5l7 33q33 8 44 41h-45z" />
    <glyph glyph-name="Lcaron" unicode="&#x13d;" horiz-adv-x="444" 
d="M46 0l148 714h114l-129 -618h276l-19 -96h-390zM347 570l54 144h105l-89 -144h-70z" />
    <glyph glyph-name="lcaron" unicode="&#x13e;" horiz-adv-x="339" 
d="M57 0l148 714h108l-148 -714h-108zM328 570l54 144h105l-89 -144h-70z" />
    <glyph glyph-name="Ldot" unicode="&#x13f;" horiz-adv-x="444" 
d="M46 0l148 714h114l-129 -618h276l-19 -96h-390zM331 430l23 108h96l-23 -108h-96z" />
    <glyph glyph-name="ldot" unicode="&#x140;" horiz-adv-x="326" 
d="M57 0l148 714h108l-148 -714h-108zM309 430l23 108h96l-23 -108h-96z" />
    <glyph glyph-name="Lslash" unicode="&#x141;" horiz-adv-x="444" 
d="M46 0l54 261l-64 -39l20 98l64 39l74 355h114l-58 -277l167 101l-20 -98l-167 -101l-51 -243h276l-19 -96h-390z" />
    <glyph glyph-name="lslash" unicode="&#x142;" 
d="M57 0l59 286l-65 -40l20 96l65 40l69 332h108l-54 -258l66 40l-20 -96l-66 -40l-74 -360h-108z" />
    <glyph glyph-name="Nacute" unicode="&#x143;" horiz-adv-x="574" 
d="M59 0l148 714h139l96 -532h2l111 532h108l-148 -714h-139l-94 546h-2l-113 -546h-108zM394 762l90 144h120l-136 -144h-74z" />
    <glyph glyph-name="nacute" unicode="&#x144;" horiz-adv-x="481" 
d="M52 0l111 538h102l-13 -63h3q59 77 154 77q136 0 104 -146l-84 -406h-108l76 369q11 53 -1.5 75t-53.5 22q-36 0 -66 -27.5t-41 -77.5l-75 -361h-108zM301 608l90 144h120l-136 -144h-74z" />
    <glyph glyph-name="Ncommaaccent" unicode="&#x145;" horiz-adv-x="574" 
d="M59 0l148 714h139l96 -532h2l111 532h108l-148 -714h-139l-94 546h-2l-113 -546h-108zM217 -149l20 99h96l-18 -86q-9 -43 -34.5 -62.5t-69.5 -24.5l7 33q33 8 44 41h-45z" />
    <glyph glyph-name="ncommaaccent" unicode="&#x146;" horiz-adv-x="481" 
d="M52 0l111 538h102l-13 -63h3q59 77 154 77q136 0 104 -146l-84 -406h-108l76 369q11 53 -1.5 75t-53.5 22q-36 0 -66 -27.5t-41 -77.5l-75 -361h-108zM164 -149l20 99h96l-18 -86q-9 -43 -34.5 -62.5t-69.5 -24.5l7 33q33 8 44 41h-45z" />
    <glyph glyph-name="Ncaron" unicode="&#x147;" horiz-adv-x="574" 
d="M59 0l148 714h139l96 -532h2l111 532h108l-148 -714h-139l-94 546h-2l-113 -546h-108zM386 762l-59 144h91l36 -88l75 88h86l-121 -144h-108z" />
    <glyph glyph-name="ncaron" unicode="&#x148;" horiz-adv-x="481" 
d="M52 0l111 538h102l-13 -63h3q59 77 154 77q136 0 104 -146l-84 -406h-108l76 369q11 53 -1.5 75t-53.5 22q-36 0 -66 -27.5t-41 -77.5l-75 -361h-108zM290 608l-59 144h91l36 -88l75 88h86l-121 -144h-108z" />
    <glyph glyph-name="Omacron" unicode="&#x14c;" horiz-adv-x="556" 
d="M292 72q28 0 50 11t46 40.5t46 88.5t40 148q18 87 21.5 145t-8.5 86.5t-30 39.5t-46 11t-50.5 -11t-46 -39.5t-45 -86.5t-39.5 -145q-18 -89 -21.5 -148t8 -88.5t29.5 -40.5t46 -11zM275 -14q-123 0 -161 89.5t2 281.5t115 281.5t198 89.5t161 -89.5t-2 -281.5
t-115 -281.5t-198 -89.5zM309 865h282l-13 -62h-282z" />
    <glyph glyph-name="omacron" unicode="&#x14d;" horiz-adv-x="463" 
d="M194 269q-25 -103 -15 -153t65 -50q56 0 83 45.5t52 157.5q10 50 13.5 83t0.5 62.5t-19 43.5t-45 14q-54 0 -84.5 -52t-50.5 -151zM86 269q28 137 88.5 210t170.5 73q76 0 114.5 -36t41 -99t-13.5 -148q-59 -283 -259 -283q-155 0 -155 168q0 54 13 115zM230 711h282
l-13 -62h-282z" />
    <glyph glyph-name="Obreve" unicode="&#x14e;" horiz-adv-x="556" 
d="M292 72q28 0 50 11t46 40.5t46 88.5t40 148q18 87 21.5 145t-8.5 86.5t-30 39.5t-46 11t-50.5 -11t-46 -39.5t-45 -86.5t-39.5 -145q-18 -89 -21.5 -148t8 -88.5t29.5 -40.5t46 -11zM275 -14q-123 0 -161 89.5t2 281.5t115 281.5t198 89.5t161 -89.5t-2 -281.5
t-115 -281.5t-198 -89.5zM328 902h62q-5 -22 10 -44.5t47 -22.5t56 22.5t29 44.5h62q-12 -58 -55.5 -96.5t-105.5 -38.5t-89.5 38.5t-15.5 96.5z" />
    <glyph glyph-name="obreve" unicode="&#x14f;" horiz-adv-x="463" 
d="M194 269q-25 -103 -15 -153t65 -50q56 0 83 45.5t52 157.5q10 50 13.5 83t0.5 62.5t-19 43.5t-45 14q-54 0 -84.5 -52t-50.5 -151zM86 269q28 137 88.5 210t170.5 73q76 0 114.5 -36t41 -99t-13.5 -148q-59 -283 -259 -283q-155 0 -155 168q0 54 13 115zM247 748h62
q-5 -22 10 -44.5t47 -22.5t56 22.5t29 44.5h62q-12 -58 -55.5 -96.5t-105.5 -38.5t-89.5 38.5t-15.5 96.5z" />
    <glyph glyph-name="Ohungarumlaut" unicode="&#x150;" horiz-adv-x="556" 
d="M292 72q28 0 50 11t46 40.5t46 88.5t40 148q18 87 21.5 145t-8.5 86.5t-30 39.5t-46 11t-50.5 -11t-46 -39.5t-45 -86.5t-39.5 -145q-18 -89 -21.5 -148t8 -88.5t29.5 -40.5t46 -11zM275 -14q-123 0 -161 89.5t2 281.5t115 281.5t198 89.5t161 -89.5t-2 -281.5
t-115 -281.5t-198 -89.5zM496 762l90 144h120l-136 -144h-74zM296 762l90 144h120l-136 -144h-74z" />
    <glyph glyph-name="ohungarumlaut" unicode="&#x151;" horiz-adv-x="463" 
d="M194 269q-25 -103 -15 -153t65 -50q56 0 83 45.5t52 157.5q10 50 13.5 83t0.5 62.5t-19 43.5t-45 14q-54 0 -84.5 -52t-50.5 -151zM86 269q28 137 88.5 210t170.5 73q76 0 114.5 -36t41 -99t-13.5 -148q-59 -283 -259 -283q-155 0 -155 168q0 54 13 115zM416 608l90 144
h120l-136 -144h-74zM216 608l90 144h120l-136 -144h-74z" />
    <glyph glyph-name="OE" unicode="&#x152;" horiz-adv-x="796" 
d="M441 236l50 242q19 95 -1 129.5t-71 34.5q-32 0 -55.5 -10.5t-48 -40t-45.5 -87t-40 -144.5q-18 -89 -21.5 -148t8 -88.5t29.5 -40.5t46 -11q57 0 93 34.5t56 129.5zM400 0l10 51h-2q-53 -65 -151 -65q-112 0 -146.5 88.5t5.5 282.5q40 191 112.5 281t186.5 90
q97 0 122 -58h2l9 44h354l-20 -96h-254l-41 -198h238l-20 -96h-238l-48 -228h262l-19 -96h-362z" />
    <glyph glyph-name="oe" unicode="&#x153;" horiz-adv-x="722" 
d="M194 269q-22 -89 -14 -146t60 -57q55 0 85 51.5t50 151.5q10 50 13.5 83t0.5 62.5t-19 43.5t-45 14q-52 0 -81.5 -52t-49.5 -151zM624 180h102q-18 -89 -80 -141.5t-149 -52.5q-99 0 -115 86q-61 -86 -165 -86q-70 0 -106 36t-38.5 99t13.5 148q28 136 87.5 209.5
t167.5 73.5q35 0 59.5 -7t39 -23t19.5 -24.5t13 -27.5q34 43 71 62.5t87 19.5q66 0 99.5 -29t37 -82.5t-11.5 -128.5l-11 -57h-269l-8 -38q-31 -153 46 -157q82 0 111 120zM491 329h160l6 29q25 120 -53 120q-43 0 -71.5 -41.5t-36.5 -84.5z" />
    <glyph glyph-name="Racute" unicode="&#x154;" horiz-adv-x="537" 
d="M255 396h91q54 0 90.5 31t47.5 85q24 116 -84 116h-97zM59 0l148 714h252q81 0 121.5 -45t21.5 -139q-15 -71 -56 -118.5t-100 -56.5v-2q53 -5 73.5 -39t8.5 -107q-23 -118 -27 -145q-6 -39 22 -62h-129q-11 16 -6 63q1 6 23 135q11 60 -6.5 86t-74.5 26h-93l-64 -310
h-114zM356 762l90 144h120l-136 -144h-74z" />
    <glyph glyph-name="racute" unicode="&#x155;" horiz-adv-x="315" 
d="M52 0l111 538h108l-17 -84h2q59 98 145 98q16 0 25 -4l-22 -110q-16 6 -44 6q-107 0 -134 -122l-66 -322h-108zM207 608l90 144h120l-136 -144h-74z" />
    <glyph glyph-name="Rcommaaccent" unicode="&#x156;" horiz-adv-x="537" 
d="M255 396h91q54 0 90.5 31t47.5 85q24 116 -84 116h-97zM59 0l148 714h252q81 0 121.5 -45t21.5 -139q-15 -71 -56 -118.5t-100 -56.5v-2q53 -5 73.5 -39t8.5 -107q-23 -118 -27 -145q-6 -39 22 -62h-129q-11 16 -6 63q1 6 23 135q11 60 -6.5 86t-74.5 26h-93l-64 -310
h-114zM208 -149l20 99h96l-18 -86q-9 -43 -34.5 -62.5t-69.5 -24.5l7 33q33 8 44 41h-45z" />
    <glyph glyph-name="rcommaaccent" unicode="&#x157;" horiz-adv-x="315" 
d="M52 0l111 538h108l-17 -84h2q59 98 145 98q16 0 25 -4l-22 -110q-16 6 -44 6q-107 0 -134 -122l-66 -322h-108zM30 -149l20 99h96l-18 -86q-9 -43 -34.5 -62.5t-69.5 -24.5l7 33q33 8 44 41h-45z" />
    <glyph glyph-name="Rcaron" unicode="&#x158;" horiz-adv-x="537" 
d="M255 396h91q54 0 90.5 31t47.5 85q24 116 -84 116h-97zM59 0l148 714h252q81 0 121.5 -45t21.5 -139q-15 -71 -56 -118.5t-100 -56.5v-2q53 -5 73.5 -39t8.5 -107q-23 -118 -27 -145q-6 -39 22 -62h-129q-11 16 -6 63q1 6 23 135q11 60 -6.5 86t-74.5 26h-93l-64 -310
h-114zM345 762l-59 144h91l36 -88l75 88h86l-121 -144h-108z" />
    <glyph glyph-name="rcaron" unicode="&#x159;" horiz-adv-x="315" 
d="M52 0l111 538h108l-17 -84h2q59 98 145 98q16 0 25 -4l-22 -110q-16 6 -44 6q-107 0 -134 -122l-66 -322h-108zM235 608l-59 144h91l36 -88l75 88h86l-121 -144h-108z" />
    <glyph glyph-name="Sacute" unicode="&#x15a;" horiz-adv-x="519" 
d="M78 221h114l-3 -18q-27 -131 89 -131q51 0 86.5 31t43.5 73q11 54 -8 83t-68 44l-72 27q-73 30 -98.5 75.5t-9.5 120.5q19 96 90.5 149t173.5 53q204 0 163 -188l-4 -16h-114l4 15q21 103 -79 103q-41 0 -73.5 -25t-43.5 -78q-10 -45 8.5 -72t72.5 -49l72 -28
q70 -27 95.5 -71t9.5 -118q-45 -215 -280 -215q-51 0 -87.5 13.5t-55.5 34.5t-28 50.5t-8.5 58.5t7.5 61zM379 762l90 144h120l-136 -144h-74z" />
    <glyph glyph-name="sacute" unicode="&#x15b;" horiz-adv-x="426" 
d="M465 381h-102l3 14q3 17 3 31q0 52 -57 52q-77 0 -92 -70q-6 -32 6.5 -48t53.5 -31l64 -24q57 -21 77.5 -56.5t7.5 -98.5q-17 -82 -79 -123t-148 -41q-97 0 -128.5 42t-14.5 125l4 20h96l-3 -17q-10 -49 4 -72.5t60 -23.5q86 0 104 79q14 59 -42 79l-82 31
q-58 21 -77 55.5t-6 99.5q15 74 71.5 111t143.5 37q49 0 81 -13.5t44 -35t16 -47.5t-3 -51zM299 608l90 144h120l-136 -144h-74z" />
    <glyph glyph-name="Scircumflex" unicode="&#x15c;" horiz-adv-x="519" 
d="M78 221h114l-3 -18q-27 -131 89 -131q51 0 86.5 31t43.5 73q11 54 -8 83t-68 44l-72 27q-73 30 -98.5 75.5t-9.5 120.5q19 96 90.5 149t173.5 53q204 0 163 -188l-4 -16h-114l4 15q21 103 -79 103q-41 0 -73.5 -25t-43.5 -78q-10 -45 8.5 -72t72.5 -49l72 -28
q70 -27 95.5 -71t9.5 -118q-45 -215 -280 -215q-51 0 -87.5 13.5t-55.5 34.5t-28 50.5t-8.5 58.5t7.5 61zM280 762l121 144h108l59 -144h-91l-36 88l-75 -88h-86z" />
    <glyph glyph-name="scircumflex" unicode="&#x15d;" horiz-adv-x="426" 
d="M465 381h-102l3 14q3 17 3 31q0 52 -57 52q-77 0 -92 -70q-6 -32 6.5 -48t53.5 -31l64 -24q57 -21 77.5 -56.5t7.5 -98.5q-17 -82 -79 -123t-148 -41q-97 0 -128.5 42t-14.5 125l4 20h96l-3 -17q-10 -49 4 -72.5t60 -23.5q86 0 104 79q14 59 -42 79l-82 31
q-58 21 -77 55.5t-6 99.5q15 74 71.5 111t143.5 37q49 0 81 -13.5t44 -35t16 -47.5t-3 -51zM202 608l121 144h108l59 -144h-91l-36 88l-75 -88h-86z" />
    <glyph glyph-name="Scedilla" unicode="&#x15e;" horiz-adv-x="519" 
d="M78 221h114l-3 -18q-27 -131 89 -131q51 0 86.5 31t43.5 73q11 54 -8 83t-68 44l-72 27q-73 30 -98.5 75.5t-9.5 120.5q19 96 90.5 149t173.5 53q204 0 163 -188l-4 -16h-114l4 15q21 103 -79 103q-41 0 -73.5 -25t-43.5 -78q-10 -45 8.5 -72t72.5 -49l72 -28
q70 -27 95.5 -71t9.5 -118q-35 -165 -180 -203q-35 -9 -63 -10l-42 -48q18 5 41 5q33 0 51 -22t11 -52q-12 -46 -44.5 -69.5t-90.5 -24.5q-59 0 -97 19l24 40q28 -13 63 -13q56 0 64 40q3 17 -8 27.5t-30 10.5q-11 0 -40 -8l-15 17l62 76q-56 2 -91 20q-97 52 -67 198z" />
    <glyph glyph-name="Scedilla" unicode="&#xf6c1;" horiz-adv-x="519" 
d="M78 221h114l-3 -18q-27 -131 89 -131q51 0 86.5 31t43.5 73q11 54 -8 83t-68 44l-72 27q-73 30 -98.5 75.5t-9.5 120.5q19 96 90.5 149t173.5 53q204 0 163 -188l-4 -16h-114l4 15q21 103 -79 103q-41 0 -73.5 -25t-43.5 -78q-10 -45 8.5 -72t72.5 -49l72 -28
q70 -27 95.5 -71t9.5 -118q-35 -165 -180 -203q-35 -9 -63 -10l-42 -48q18 5 41 5q33 0 51 -22t11 -52q-12 -46 -44.5 -69.5t-90.5 -24.5q-59 0 -97 19l24 40q28 -13 63 -13q56 0 64 40q3 17 -8 27.5t-30 10.5q-11 0 -40 -8l-15 17l62 76q-56 2 -91 20q-97 52 -67 198z" />
    <glyph glyph-name="scedilla" unicode="&#x15f;" horiz-adv-x="426" 
d="M465 381h-102l3 14q3 17 3 31q0 52 -57 52q-77 0 -92 -70q-6 -32 6.5 -48t53.5 -31l64 -24q57 -21 77.5 -56.5t7.5 -98.5q-13 -62 -52.5 -101t-96.5 -53q-26 -8 -52 -9l-41 -47q18 5 41 5q33 0 51 -22t11 -52q-12 -46 -44.5 -69.5t-90.5 -24.5q-59 0 -97 19l24 40
q28 -13 63 -13q56 0 64 40q3 17 -8 27.5t-30 10.5q-11 0 -40 -8l-15 17l63 77q-35 1 -60 11q-86 30 -60 155l4 20h96l-3 -17q-10 -49 4 -72.5t60 -23.5q86 0 104 79q14 59 -42 79l-82 31q-58 21 -77 55.5t-6 99.5q15 74 71.5 111t143.5 37q49 0 81 -13.5t44 -35t16 -47.5
t-3 -51z" />
    <glyph glyph-name="scedilla" unicode="&#xf6c2;" horiz-adv-x="426" 
d="M465 381h-102l3 14q3 17 3 31q0 52 -57 52q-77 0 -92 -70q-6 -32 6.5 -48t53.5 -31l64 -24q57 -21 77.5 -56.5t7.5 -98.5q-13 -62 -52.5 -101t-96.5 -53q-26 -8 -52 -9l-41 -47q18 5 41 5q33 0 51 -22t11 -52q-12 -46 -44.5 -69.5t-90.5 -24.5q-59 0 -97 19l24 40
q28 -13 63 -13q56 0 64 40q3 17 -8 27.5t-30 10.5q-11 0 -40 -8l-15 17l63 77q-35 1 -60 11q-86 30 -60 155l4 20h96l-3 -17q-10 -49 4 -72.5t60 -23.5q86 0 104 79q14 59 -42 79l-82 31q-58 21 -77 55.5t-6 99.5q15 74 71.5 111t143.5 37q49 0 81 -13.5t44 -35t16 -47.5
t-3 -51z" />
    <glyph glyph-name="Scaron" unicode="&#x160;" horiz-adv-x="519" 
d="M78 221h114l-3 -18q-27 -131 89 -131q51 0 86.5 31t43.5 73q11 54 -8 83t-68 44l-72 27q-73 30 -98.5 75.5t-9.5 120.5q19 96 90.5 149t173.5 53q204 0 163 -188l-4 -16h-114l4 15q21 103 -79 103q-41 0 -73.5 -25t-43.5 -78q-10 -45 8.5 -72t72.5 -49l72 -28
q70 -27 95.5 -71t9.5 -118q-45 -215 -280 -215q-51 0 -87.5 13.5t-55.5 34.5t-28 50.5t-8.5 58.5t7.5 61zM365 762l-59 144h91l36 -88l75 88h86l-121 -144h-108z" />
    <glyph glyph-name="scaron" unicode="&#x161;" horiz-adv-x="426" 
d="M465 381h-102l3 14q3 17 3 31q0 52 -57 52q-77 0 -92 -70q-6 -32 6.5 -48t53.5 -31l64 -24q57 -21 77.5 -56.5t7.5 -98.5q-17 -82 -79 -123t-148 -41q-97 0 -128.5 42t-14.5 125l4 20h96l-3 -17q-10 -49 4 -72.5t60 -23.5q86 0 104 79q14 59 -42 79l-82 31
q-58 21 -77 55.5t-6 99.5q15 74 71.5 111t143.5 37q49 0 81 -13.5t44 -35t16 -47.5t-3 -51zM276 608l-59 144h91l36 -88l75 88h86l-121 -144h-108z" />
    <glyph glyph-name="Tcommaaccent" unicode="&#x162;" horiz-adv-x="463" 
d="M176 0l128 618h-170l20 96h451l-20 -96h-167l-128 -618h-114zM155 -149l20 99h96l-18 -86q-9 -43 -34.5 -62.5t-69.5 -24.5l7 33q33 8 44 41h-45z" />
    <glyph glyph-name="tcommaaccent" unicode="&#x163;" horiz-adv-x="278" 
d="M99 458l16 80h74l32 153h108l-32 -153h88l-16 -80h-88l-67 -321q-7 -32 1 -44.5t36 -12.5q23 0 40 3l-17 -80q-36 -9 -89 -9q-58 0 -78.5 26.5t-3.5 103.5l70 334h-74zM108 -149l20 99h96l-18 -86q-9 -43 -34.5 -62.5t-69.5 -24.5l7 33q33 8 44 41h-45z" />
    <glyph glyph-name="Tcaron" unicode="&#x164;" horiz-adv-x="463" 
d="M176 0l128 618h-170l20 96h451l-20 -96h-167l-128 -618h-114zM331 762l-59 144h91l36 -88l75 88h86l-121 -144h-108z" />
    <glyph glyph-name="tcaron" unicode="&#x165;" horiz-adv-x="407" 
d="M382 570l54 144h105l-89 -144h-70zM99 458l16 80h74l32 153h108l-32 -153h88l-16 -80h-88l-67 -321q-7 -32 1 -44.5t36 -12.5q23 0 40 3l-17 -80q-36 -9 -89 -9q-58 0 -78.5 26.5t-3.5 103.5l70 334h-74z" />
    <glyph glyph-name="Tbar" unicode="&#x166;" horiz-adv-x="463" 
d="M273 468l31 150h-170l20 96h451l-20 -96h-167l-31 -150h114l-12 -52h-113l-86 -416h-114l86 416h-119l12 52h118z" />
    <glyph glyph-name="tbar" unicode="&#x167;" horiz-adv-x="278" 
d="M99 458l16 80h74l32 153h108l-32 -153h88l-16 -80h-88l-23 -112h95l-11 -52h-95l-33 -157q-7 -32 1 -44.5t36 -12.5q23 0 40 3l-17 -80q-36 -9 -89 -9q-58 0 -78.5 26.5t-3.5 103.5l35 170h-83l11 52h83l24 112h-74z" />
    <glyph glyph-name="Utilde" unicode="&#x168;" horiz-adv-x="537" 
d="M198 714h114l-107 -512q-27 -130 78 -130q104 0 131 130l107 512h114l-105 -503q-25 -120 -91 -172.5t-173 -52.5t-152.5 53t-20.5 172zM537 896h62q-7 -39 -39.5 -78.5t-71.5 -39.5q-24 0 -61 17.5t-51 17.5q-16 0 -27.5 -11.5t-15.5 -28.5h-62q7 41 41.5 80.5
t84.5 39.5q10 0 50 -17q34 -18 52 -18q30 0 38 38z" />
    <glyph glyph-name="utilde" unicode="&#x169;" horiz-adv-x="481" 
d="M327 0l13 63h-3q-59 -77 -154 -77q-65 0 -91.5 39t-6.5 137l78 376h108l-80 -386q-9 -44 5 -62t51 -18q38 0 68 23.5t39 66.5l78 376h108l-111 -538h-102zM475 742h62q-7 -39 -39.5 -78.5t-71.5 -39.5q-24 0 -61 17.5t-51 17.5q-16 0 -27.5 -11.5t-15.5 -28.5h-62
q7 41 41.5 80.5t84.5 39.5q10 0 50 -17q34 -18 52 -18q30 0 38 38z" />
    <glyph glyph-name="Umacron" unicode="&#x16a;" horiz-adv-x="537" 
d="M198 714h114l-107 -512q-27 -130 78 -130q104 0 131 130l107 512h114l-105 -503q-25 -120 -91 -172.5t-173 -52.5t-152.5 53t-20.5 172zM304 865h282l-13 -62h-282z" />
    <glyph glyph-name="umacron" unicode="&#x16b;" horiz-adv-x="481" 
d="M327 0l13 63h-3q-59 -77 -154 -77q-65 0 -91.5 39t-6.5 137l78 376h108l-80 -386q-9 -44 5 -62t51 -18q38 0 68 23.5t39 66.5l78 376h108l-111 -538h-102zM241 711h282l-13 -62h-282z" />
    <glyph glyph-name="Ubreve" unicode="&#x16c;" horiz-adv-x="537" 
d="M198 714h114l-107 -512q-27 -130 78 -130q104 0 131 130l107 512h114l-105 -503q-25 -120 -91 -172.5t-173 -52.5t-152.5 53t-20.5 172zM312 902h62q-5 -22 10 -44.5t47 -22.5t56 22.5t29 44.5h62q-12 -58 -55.5 -96.5t-105.5 -38.5t-89.5 38.5t-15.5 96.5z" />
    <glyph glyph-name="ubreve" unicode="&#x16d;" horiz-adv-x="481" 
d="M327 0l13 63h-3q-59 -77 -154 -77q-65 0 -91.5 39t-6.5 137l78 376h108l-80 -386q-9 -44 5 -62t51 -18q38 0 68 23.5t39 66.5l78 376h108l-111 -538h-102zM248 748h62q-5 -22 10 -44.5t47 -22.5t56 22.5t29 44.5h62q-12 -58 -55.5 -96.5t-105.5 -38.5t-89.5 38.5
t-15.5 96.5z" />
    <glyph glyph-name="Uring" unicode="&#x16e;" horiz-adv-x="537" 
d="M198 714h114l-107 -512q-27 -130 78 -130q104 0 131 130l107 512h114l-105 -503q-25 -120 -91 -172.5t-173 -52.5t-152.5 53t-20.5 172zM331 846q8 45 45.5 74.5t82.5 29.5t69 -29.5t15 -74.5q-11 -45 -47 -74.5t-81 -29.5t-69 29.5t-15 74.5zM381 846q-5 -23 8 -40
t36 -17t43 17t25 40t-8.5 40t-36.5 17t-42.5 -16.5t-24.5 -40.5z" />
    <glyph glyph-name="uring" unicode="&#x16f;" horiz-adv-x="481" 
d="M327 0l13 63h-3q-59 -77 -154 -77q-65 0 -91.5 39t-6.5 137l78 376h108l-80 -386q-9 -44 5 -62t51 -18q38 0 68 23.5t39 66.5l78 376h108l-111 -538h-102zM267 696q8 45 45.5 74.5t82.5 29.5t69 -29.5t15 -74.5q-11 -45 -47 -74.5t-81 -29.5t-69 29.5t-15 74.5zM317 696
q-5 -23 8 -40t36 -17t43 17t25 40t-8.5 40t-36.5 17t-42.5 -16.5t-24.5 -40.5z" />
    <glyph glyph-name="Uhungarumlaut" unicode="&#x170;" horiz-adv-x="537" 
d="M198 714h114l-107 -512q-27 -130 78 -130q104 0 131 130l107 512h114l-105 -503q-25 -120 -91 -172.5t-173 -52.5t-152.5 53t-20.5 172zM486 762l90 144h120l-136 -144h-74zM286 762l90 144h120l-136 -144h-74z" />
    <glyph glyph-name="uhungarumlaut" unicode="&#x171;" horiz-adv-x="481" 
d="M327 0l13 63h-3q-59 -77 -154 -77q-65 0 -91.5 39t-6.5 137l78 376h108l-80 -386q-9 -44 5 -62t51 -18q38 0 68 23.5t39 66.5l78 376h108l-111 -538h-102zM424 608l90 144h120l-136 -144h-74zM224 608l90 144h120l-136 -144h-74z" />
    <glyph glyph-name="Uogonek" unicode="&#x172;" horiz-adv-x="537" 
d="M198 714h114l-107 -512q-27 -130 78 -130q104 0 131 130l107 512h114l-105 -503q-37 -176 -170 -213q-24 -6 -49 -9q-34 -34 -53 -61q-21 -32 -25 -52q-11 -47 24 -47q18 0 55 19l21 -34q-54 -37 -111 -37q-38 0 -60.5 21t-11.5 65q7 32 43 71q32 32 60 52q-42 1 -77 12
q-120 38 -83 213z" />
    <glyph glyph-name="uogonek" unicode="&#x173;" horiz-adv-x="481" 
d="M429 0h-54q-74 -74 -86 -124q-11 -47 23 -47q16 0 52 19l20 -34q-51 -37 -105 -37q-37 0 -58 21t-11 65q8 32 40.5 69t76.5 68l13 63h-3q-59 -77 -154 -77q-65 0 -91.5 39t-6.5 137l78 376h108l-80 -386q-9 -44 5 -62t51 -18q38 0 68 23.5t39 66.5l78 376h108z" />
    <glyph glyph-name="Wcircumflex" unicode="&#x174;" horiz-adv-x="741" 
d="M144 0l10 714h115l-21 -555h2l209 555h120l-20 -558h2l209 558h113l-290 -714h-132l19 538h-2l-202 -538h-132zM381 762l121 144h108l59 -144h-91l-36 88l-75 -88h-86z" />
    <glyph glyph-name="wcircumflex" unicode="&#x175;" horiz-adv-x="685" 
d="M137 0l-11 538h112l-13 -424h2l168 424h122l-8 -424h2l162 424h108l-234 -538h-121l2 418h-2l-163 -418h-126zM324 608l121 144h108l59 -144h-91l-36 88l-75 -88h-86z" />
    <glyph glyph-name="Ycircumflex" unicode="&#x176;" horiz-adv-x="481" 
d="M180 0l58 279l-94 435h127l56 -308l187 308h119l-281 -435l-58 -279h-114zM262 762l121 144h108l59 -144h-91l-36 88l-75 -88h-86z" />
    <glyph glyph-name="ycircumflex" unicode="&#x177;" horiz-adv-x="426" 
d="M119 538h116l9 -404h2l170 404h113l-264 -558q-36 -74 -66 -109t-63.5 -46t-92.5 -9q-22 0 -42 4l18 86q16 -4 34 -4q30 0 49.5 8.5t32.5 33.5l23 44zM196 608l121 144h108l59 -144h-91l-36 88l-75 -88h-86z" />
    <glyph glyph-name="Ydieresis" unicode="&#x178;" horiz-adv-x="481" 
d="M180 0l58 279l-94 435h127l56 -308l187 308h119l-281 -435l-58 -279h-114zM268 780l23 108h96l-23 -108h-96zM434 780l23 108h96l-23 -108h-96z" />
    <glyph glyph-name="Zacute" unicode="&#x179;" horiz-adv-x="463" 
d="M18 0l18 90l409 528h-281l20 96h406l-20 -96l-408 -522h302l-19 -96h-427zM342 762l90 144h120l-136 -144h-74z" />
    <glyph glyph-name="zacute" unicode="&#x17a;" horiz-adv-x="407" 
d="M25 0l17 84l310 363h-221l19 91h343l-18 -89l-301 -358h226l-18 -91h-357zM278 608l90 144h120l-136 -144h-74z" />
    <glyph glyph-name="Zdotaccent" unicode="&#x17b;" horiz-adv-x="463" 
d="M18 0l18 90l409 528h-281l20 96h406l-20 -96l-408 -522h302l-19 -96h-427zM341 780l23 108h96l-23 -108h-96z" />
    <glyph glyph-name="zdotaccent" unicode="&#x17c;" horiz-adv-x="407" 
d="M25 0l17 84l310 363h-221l19 91h343l-18 -89l-301 -358h226l-18 -91h-357zM276 626l23 108h96l-23 -108h-96z" />
    <glyph glyph-name="Zcaron" unicode="&#x17d;" horiz-adv-x="463" 
d="M18 0l18 90l409 528h-281l20 96h406l-20 -96l-408 -522h302l-19 -96h-427zM333 762l-59 144h91l36 -88l75 88h86l-121 -144h-108z" />
    <glyph glyph-name="zcaron" unicode="&#x17e;" horiz-adv-x="407" 
d="M25 0l17 84l310 363h-221l19 91h343l-18 -89l-301 -358h226l-18 -91h-357zM271 608l-59 144h91l36 -88l75 88h86l-121 -144h-108z" />
    <glyph glyph-name="florin" unicode="&#x192;" horiz-adv-x="480" 
d="M185 434h106l55 129q32 75 75 113t118 38q52 0 75 -8l-31 -76q-36 4 -37 4q-35 0 -60.5 -21t-46.5 -72l-46 -107h112l-25 -68h-114l-154 -371q-36 -89 -82.5 -130t-126.5 -41q-45 0 -64 6l33 78q15 -4 41 -4q37 0 56.5 18.5t38.5 64.5l156 379h-104z" />
    <glyph glyph-name="Scommaaccent" unicode="&#x218;" horiz-adv-x="519" 
d="M78 221h114l-3 -18q-27 -131 89 -131q51 0 86.5 31t43.5 73q11 54 -8 83t-68 44l-72 27q-73 30 -98.5 75.5t-9.5 120.5q19 96 90.5 149t173.5 53q204 0 163 -188l-4 -16h-114l4 15q21 103 -79 103q-41 0 -73.5 -25t-43.5 -78q-10 -45 8.5 -72t72.5 -49l72 -28
q70 -27 95.5 -71t9.5 -118q-45 -215 -280 -215q-51 0 -87.5 13.5t-55.5 34.5t-28 50.5t-8.5 58.5t7.5 61zM185 -149l20 99h96l-18 -86q-9 -43 -34.5 -62.5t-69.5 -24.5l7 33q33 8 44 41h-45z" />
    <glyph glyph-name="scommaaccent" unicode="&#x219;" horiz-adv-x="426" 
d="M465 381h-102l3 14q3 17 3 31q0 52 -57 52q-77 0 -92 -70q-6 -32 6.5 -48t53.5 -31l64 -24q57 -21 77.5 -56.5t7.5 -98.5q-17 -82 -79 -123t-148 -41q-97 0 -128.5 42t-14.5 125l4 20h96l-3 -17q-10 -49 4 -72.5t60 -23.5q86 0 104 79q14 59 -42 79l-82 31
q-58 21 -77 55.5t-6 99.5q15 74 71.5 111t143.5 37q49 0 81 -13.5t44 -35t16 -47.5t-3 -51zM132 -149l20 99h96l-18 -86q-9 -43 -34.5 -62.5t-69.5 -24.5l7 33q33 8 44 41h-45z" />
    <glyph glyph-name="uni021A" unicode="&#x21a;" horiz-adv-x="463" 
d="M176 0l128 618h-170l20 96h451l-20 -96h-167l-128 -618h-114zM155 -149l20 99h96l-18 -86q-9 -43 -34.5 -62.5t-69.5 -24.5l7 33q33 8 44 41h-45z" />
    <glyph glyph-name="uni021B" unicode="&#x21b;" horiz-adv-x="278" 
d="M99 458l16 80h74l32 153h108l-32 -153h88l-16 -80h-88l-67 -321q-7 -32 1 -44.5t36 -12.5q23 0 40 3l-17 -80q-36 -9 -89 -9q-58 0 -78.5 26.5t-3.5 103.5l70 334h-74zM108 -149l20 99h96l-18 -86q-9 -43 -34.5 -62.5t-69.5 -24.5l7 33q33 8 44 41h-45z" />
    <glyph glyph-name="circumflex" unicode="&#x2c6;" 
d="M93 608l121 144h108l59 -144h-91l-36 88l-75 -88h-86z" />
    <glyph glyph-name="caron" unicode="&#x2c7;" 
d="M182 608l-59 144h91l36 -88l75 88h86l-121 -144h-108z" />
    <glyph glyph-name="uni02C9" unicode="&#x2c9;" 
d="M118 711h282l-13 -62h-282z" />
    <glyph glyph-name="breve" unicode="&#x2d8;" 
d="M132 748h62q-5 -22 10 -44.5t47 -22.5t56 22.5t29 44.5h62q-12 -58 -55.5 -96.5t-105.5 -38.5t-89.5 38.5t-15.5 96.5z" />
    <glyph glyph-name="dotaccent" unicode="&#x2d9;" 
d="M193 626l23 108h96l-23 -108h-96z" />
    <glyph glyph-name="ring" unicode="&#x2da;" 
d="M150 696q8 45 45.5 74.5t82.5 29.5t69 -29.5t15 -74.5q-11 -45 -47 -74.5t-81 -29.5t-69 29.5t-15 74.5zM200 696q-5 -23 8 -40t36 -17t43 17t25 40t-8.5 40t-36.5 17t-42.5 -16.5t-24.5 -40.5z" />
    <glyph glyph-name="ogonek" unicode="&#x2db;" 
d="M116 0h50q-78 -74 -90 -124q-11 -47 24 -47q18 0 55 19l21 -34q-54 -37 -111 -37q-38 0 -60.5 21t-11.5 65q8 32 42 69t81 68z" />
    <glyph glyph-name="tilde" unicode="&#x2dc;" 
d="M353 742h62q-7 -39 -39.5 -78.5t-71.5 -39.5q-24 0 -61 17.5t-51 17.5q-16 0 -27.5 -11.5t-15.5 -28.5h-62q7 41 41.5 80.5t84.5 39.5q10 0 50 -17q34 -18 52 -18q30 0 38 38z" />
    <glyph glyph-name="hungarumlaut" unicode="&#x2dd;" 
d="M262 608l90 144h120l-136 -144h-74zM62 608l90 144h120l-136 -144h-74z" />
    <glyph glyph-name="uni0394" unicode="&#x394;" horiz-adv-x="682" 
d="M473 92l-89 503l-296 -503h385zM587 0h-662l425 712h104z" />
    <glyph glyph-name="uni03A9" unicode="&#x3a9;" horiz-adv-x="755" 
d="M701 449q0 -115 -68 -203.5t-180 -108.5l-11 -54h189l-18 -83h-267l40 190q91 14 150.5 86.5t59.5 166.5q0 85 -50 135.5t-135 50.5q-110 0 -185.5 -85t-75.5 -196q0 -63 31.5 -106.5t91.5 -51.5l-40 -190h-259l17 83h180l13 59q-67 19 -103.5 77t-36.5 131
q0 152 110 261.5t262 109.5q124 0 204.5 -74.5t80.5 -197.5z" />
    <glyph glyph-name="uni03BC" unicode="&#x3bc;" horiz-adv-x="481" 
d="M15 -176l148 714h108l-76 -369q-11 -53 1 -75t53 -22q35 0 66.5 28t41.5 77l75 361h108l-111 -538h-102l13 63h-3q-28 -36 -63 -56.5t-67 -20.5q-33 0 -47 18l-37 -180h-108z" />
    <glyph glyph-name="pi" unicode="&#x3c0;" horiz-adv-x="585" 
d="M584 482l-19 -90h-78l-54 -253q-6 -26 -6 -40q0 -25 31 -25q12 0 45 11l-15 -72q-49 -20 -82 -20q-36 0 -59 15.5t-23 49.5q0 18 9 63l58 271h-216l-83 -392h-97l83 392h-70l19 90h557z" />
    <glyph glyph-name="endash" unicode="&#x2013;" horiz-adv-x="500" 
d="M50 241l20 96h500l-20 -96h-500z" />
    <glyph glyph-name="emdash" unicode="&#x2014;" horiz-adv-x="1000" 
d="M50 241l20 96h1000l-20 -96h-1000z" />
    <glyph glyph-name="quoteleft" unicode="&#x2018;" horiz-adv-x="240" 
d="M151 428l28 132q13 64 46.5 103t99.5 51l-12 -58q-53 -13 -67 -81l-3 -15h50l-28 -132h-114z" />
    <glyph glyph-name="quoteright" unicode="&#x2019;" horiz-adv-x="240" 
d="M184 582l27 132h114l-27 -132q-14 -65 -48 -103.5t-99 -50.5l13 58q52 13 66 81l4 15h-50z" />
    <glyph glyph-name="quotesinglbase" unicode="&#x201a;" horiz-adv-x="240" 
d="M63 0l27 132h114l-27 -132q-14 -65 -48 -103.5t-99 -50.5l13 58q52 13 66 81l4 15h-50z" />
    <glyph glyph-name="quotedblleft" unicode="&#x201c;" horiz-adv-x="426" 
d="M333 428l28 132q13 64 46.5 103t99.5 51l-12 -58q-53 -13 -67 -81l-3 -15h50l-28 -132h-114zM155 428l28 132q13 64 46.5 103t99.5 51l-12 -58q-53 -13 -67 -81l-3 -15h50l-28 -132h-114z" />
    <glyph glyph-name="quotedblright" unicode="&#x201d;" horiz-adv-x="426" 
d="M188 582l27 132h114l-27 -132q-14 -65 -48 -103.5t-99 -50.5l13 58q52 13 66 81l4 15h-50zM366 582l27 132h114l-27 -132q-14 -65 -48 -103.5t-99 -50.5l13 58q52 13 66 81l4 15h-50z" />
    <glyph glyph-name="quotedblbase" unicode="&#x201e;" horiz-adv-x="426" 
d="M67 0l27 132h114l-27 -132q-14 -65 -48 -103.5t-99 -50.5l13 58q52 13 66 81l4 15h-50zM245 0l27 132h114l-27 -132q-14 -65 -48 -103.5t-99 -50.5l13 58q52 13 66 81l4 15h-50z" />
    <glyph glyph-name="dagger" unicode="&#x2020;" horiz-adv-x="482" 
d="M293 512l42 202h108l-42 -202h171l-19 -91h-171l-117 -563h-108l117 563h-171l19 91h171z" />
    <glyph glyph-name="daggerdbl" unicode="&#x2021;" horiz-adv-x="482" 
d="M294 519l41 195h108l-41 -195h172l-17 -86h-172l-61 -290h172l-18 -86h-172l-41 -199h-108l41 199h-172l18 86h172l61 290h-172l17 86h172z" />
    <glyph glyph-name="bullet" unicode="&#x2022;" horiz-adv-x="500" 
d="M146 357q14 74 77.5 126t137.5 52q75 0 115 -51.5t26 -126.5q-16 -74 -78.5 -126t-136.5 -52t-115.5 52t-25.5 126z" />
    <glyph glyph-name="ellipsis" unicode="&#x2026;" horiz-adv-x="1000" 
d="M776 0l27 132h114l-27 -132h-114zM443 0l27 132h114l-27 -132h-114zM110 0l27 132h114l-27 -132h-114z" />
    <glyph glyph-name="perthousand" unicode="&#x2030;" horiz-adv-x="1056" 
d="M651 370q65 0 92 -43.5t6 -148.5q-23 -105 -67.5 -148.5t-109.5 -43.5q-138 0 -97 192q37 192 176 192zM639 308q-30 0 -46.5 -29t-31.5 -101q-16 -70 -11.5 -100t34.5 -30t46.5 29t32.5 101q15 70 10.5 100t-34.5 30zM309 708q138 0 97 -192q-23 -105 -67.5 -148.5
t-109.5 -43.5q-138 0 -97 192q23 105 67.5 148.5t109.5 43.5zM970 370q65 0 92 -43.5t6 -148.5q-23 -105 -67.5 -148.5t-109.5 -43.5q-138 0 -97 192q37 192 176 192zM296 646q-30 0 -46.5 -29t-31.5 -101q-16 -70 -11 -100t35 -30t46 28.5t32 101.5q15 70 10.5 100
t-34.5 30zM633 708h77l-469 -722h-75zM958 308q-30 0 -46.5 -29t-31.5 -101q-16 -70 -11.5 -100t34.5 -30t46.5 29t32.5 101q15 70 10.5 100t-34.5 30z" />
    <glyph glyph-name="guilsinglleft" unicode="&#x2039;" horiz-adv-x="240" 
d="M96 232l23 114l173 135l-23 -110l-105 -82l71 -82l-23 -110z" />
    <glyph glyph-name="guilsinglright" unicode="&#x203a;" horiz-adv-x="240" 
d="M263 346l-23 -114l-172 -135l23 110l105 82l-71 82l23 110z" />
    <glyph glyph-name="fraction" unicode="&#x2044;" horiz-adv-x="167" 
d="M-170 -31l577 756h74l-577 -756h-74z" />
    <glyph glyph-name="Euro" unicode="&#x20ac;" horiz-adv-x="480" 
d="M612 639l-53 -92q-9 36 -40 59q-28 22 -75 22q-53 0 -88 -33q-50 -44 -73 -142h224l-38 -68h-204q-7 -24 -15 -70h185l-38 -68h-157q-6 -30 -6 -68q0 -51 19 -78q24 -35 76 -35q44 0 90 21q42 20 74 57l-22 -110q-22 -16 -52 -28q-47 -20 -108 -20q-94 0 -141 43
q-28 27 -39.5 73.5t-10.5 80.5t6 64h-75l38 68h47q8 46 15 70h-71l38 68h51q41 151 133 212q65 43 156 43q58 0 100 -19q34 -16 54 -50z" />
    <glyph glyph-name="afii61289" unicode="&#x2113;" horiz-adv-x="500" 
d="M479 608q0 -158 -250 -338q-31 -130 -31 -158q0 -26 14 -38.5t34 -12.5q40 0 99 40h2l26 -59q-78 -56 -155 -56q-56 0 -89 29t-33 79q0 16 20 109l-65 -52h-2l-29 57l114 83l53 250q18 86 66.5 133t114.5 47q49 0 80 -32t31 -81zM395 603q0 21 -10.5 35.5t-26.5 14.5
q-47 0 -66 -89l-44 -203q59 52 103 118t44 124z" />
    <glyph glyph-name="trademark" unicode="&#x2122;" horiz-adv-x="1000" 
d="M890 302l68 326h-2l-189 -326h-56l-53 326h-2l-68 -326h-80l86 412h119l51 -292l173 292h119l-86 -412h-80zM217 302l72 344h-123l14 68h332l-14 -68h-123l-72 -344h-86z" />
    <glyph glyph-name="Omega" unicode="&#x2126;" horiz-adv-x="755" 
d="M701 449q0 -115 -68 -203.5t-180 -108.5l-11 -54h189l-18 -83h-267l40 190q91 14 150.5 86.5t59.5 166.5q0 85 -50 135.5t-135 50.5q-110 0 -185.5 -85t-75.5 -196q0 -63 31.5 -106.5t91.5 -51.5l-40 -190h-259l17 83h180l13 59q-67 19 -103.5 77t-36.5 131
q0 152 110 261.5t262 109.5q124 0 204.5 -74.5t80.5 -197.5z" />
    <glyph glyph-name="estimated" unicode="&#x212e;" horiz-adv-x="600" 
d="M561 259h-404v-181q59 -59 145 -59q122 0 193 120l35 -21q-46 -72 -98 -103.5t-130 -31.5q-115 0 -186.5 79t-71.5 197q0 119 71 197.5t187 78.5q115 0 186.5 -77t72.5 -199zM157 295h291v145q-63 60 -147 60t-144 -60v-145z" />
    <glyph glyph-name="partialdiff" unicode="&#x2202;" horiz-adv-x="541" 
d="M372 286q-59 70 -134 70q-61 0 -93.5 -42t-32.5 -104q0 -61 30.5 -103.5t89.5 -42.5q39 0 67.5 22t43.5 57t22 71t7 72zM476 360q0 -54 -5.5 -102t-22 -99t-43 -87.5t-72 -60t-104.5 -23.5q-97 0 -156 65t-59 162q0 94 58 156t152 62q83 0 150 -62v33q2 56 -11.5 107
t-52 91t-96.5 40q-55 0 -117 -48l-54 63q83 64 168 64q73 0 126.5 -31.5t82.5 -86t42.5 -115t13.5 -128.5z" />
    <glyph glyph-name="Delta" unicode="&#x2206;" horiz-adv-x="682" 
d="M473 92l-89 503l-296 -503h385zM587 0h-662l425 712h104z" />
    <glyph glyph-name="product" unicode="&#x220f;" horiz-adv-x="733" 
d="M670 -214h-102v907h-402v-907h-102v1000h606v-1000z" />
    <glyph glyph-name="summation" unicode="&#x2211;" horiz-adv-x="637" 
d="M612 -214h-587v81l309 424l-296 415v80h562v-93h-427l283 -401l-302 -414h458v-92z" />
    <glyph glyph-name="minus" unicode="&#x2212;" horiz-adv-x="600" 
d="M90 210l18 86h506l-18 -86h-506z" />
    <glyph glyph-name="uni2215" unicode="&#x2215;" horiz-adv-x="167" 
d="M-170 -31l577 756h74l-577 -756h-74z" />
    <glyph glyph-name="uni2219" unicode="&#x2219;" horiz-adv-x="240" 
d="M112 308q6 30 31.5 51t55.5 21t46.5 -21t10.5 -51q-7 -30 -32 -51t-55 -21t-47 21t-10 51z" />
    <glyph glyph-name="radical" unicode="&#x221a;" horiz-adv-x="526" 
d="M511 786l-211 -1000h-96l-155 322l-49 -23l-38 80l137 63l136 -289l173 847h103z" />
    <glyph glyph-name="infinity" unicode="&#x221e;" horiz-adv-x="796" 
d="M310 256q-88 88 -143 88q-35 0 -56.5 -26t-21.5 -61q0 -37 21.5 -60t59.5 -23q34 0 73 25t67 57zM635 257q0 38 -21.5 63t-59.5 25q-24 0 -53.5 -17.5t-43 -30t-42.5 -41.5q26 -26 42 -40t44.5 -28.5t54.5 -14.5q37 0 58 23.5t21 60.5zM716 260q0 -75 -43.5 -124.5
t-117.5 -49.5q-90 0 -192 112q-30 -30 -43 -42t-40 -32.5t-53 -28.5t-56 -8q-74 0 -118.5 48.5t-44.5 122.5t43.5 123t116.5 49q40 0 78.5 -19.5t60.5 -39.5t56 -58q48 55 92 86.5t100 31.5q73 0 117 -48.5t44 -122.5z" />
    <glyph glyph-name="integral" unicode="&#x222b;" horiz-adv-x="589" 
d="M461 717q0 -20 -14 -34t-34 -14q-22 0 -35 15t-19.5 30t-13.5 15q-22 0 -22 -35q0 -22 1.5 -65.5t1.5 -65.5v-565q0 -33 -2.5 -59t-11 -56t-23 -50t-40.5 -33.5t-61 -13.5q-34 0 -64 18t-30 50q0 20 12 33t32 13q22 0 34.5 -15.5t19 -31t13.5 -15.5q20 0 20 45
q0 16 -1 48t-1 48v543v20v46.5t2.5 46.5t7.5 47t15 39.5t24.5 35t37.5 21t52 8.5q37 0 68 -17.5t31 -51.5z" />
    <glyph glyph-name="approxequal" unicode="&#x2248;" horiz-adv-x="593" 
d="M471 240h64q-7 -70 -41.5 -116.5t-100.5 -46.5q-43 0 -137.5 34.5t-122.5 34.5q-27 0 -45 -20.5t-22 -49.5h-65q7 68 42 116t99 48q42 0 133.5 -34t128.5 -34q54 0 67 68zM472 438h65q-7 -70 -41.5 -116.5t-100.5 -46.5q-43 0 -138 35t-122 35t-45.5 -21.5t-22.5 -49.5
h-65q7 68 42 116t99 48q43 0 133 -33.5t130 -33.5q53 0 66 67z" />
    <glyph glyph-name="notequal" unicode="&#x2260;" horiz-adv-x="593" 
d="M527 102h-285l-78 -150l-83 42l55 108h-126v96h175l61 119h-236v96h285l78 150l83 -42l-56 -108h127v-96h-175l-62 -119h237v-96z" />
    <glyph glyph-name="lessequal" unicode="&#x2264;" horiz-adv-x="593" 
d="M527 -34h-517v96h517v-96zM527 96l-517 175v97l517 180v-101l-386 -127l386 -123v-101z" />
    <glyph glyph-name="greaterequal" unicode="&#x2265;" horiz-adv-x="593" 
d="M527 -34h-517v96h517v-96zM527 271l-517 -175v101l386 123l-386 127v101l517 -180v-97z" />
    <glyph glyph-name="lozenge" unicode="&#x25ca;" horiz-adv-x="593" 
d="M419 356l-123 294l-122 -294l122 -296zM517 356l-176 -391h-91l-174 391l174 391h91z" />
    <glyph glyph-name="commaaccent" unicode="&#xf004;" horiz-adv-x="240" 
d="M37 -149l20 99h96l-18 -86q-9 -43 -34.5 -62.5t-69.5 -24.5l7 33q33 8 44 41h-45z" />
    <glyph glyph-name="commaaccent" unicode="&#xf6c3;" horiz-adv-x="240" 
d="M37 -149l20 99h96l-18 -86q-9 -43 -34.5 -62.5t-69.5 -24.5l7 33q33 8 44 41h-45z" />
    <glyph glyph-name="dotlessj" unicode="&#xf6be;" 
d="M168 538h108l-119 -573q-17 -81 -58.5 -115t-113.5 -34q-23 0 -46 3l17 83h25q31 0 46 15.5t24 57.5z" />
    <glyph glyph-name="dotlessj" unicode="&#xfb0f;" 
d="M168 538h108l-119 -573q-17 -81 -58.5 -115t-113.5 -34q-23 0 -46 3l17 83h25q31 0 46 15.5t24 57.5z" />
    <glyph glyph-name="uniF8FF" unicode="&#xf8ff;" horiz-adv-x="512" 
d="M222 117h56v67h-56v-67zM225 234h46q0 52 6 72q6 19 43 52q37 34 50 60t13 60q0 59 -35 95t-89 36q-56 0 -92 -34t-43 -103l50 -8q11 95 82 95q31 0 53.5 -24.5t22.5 -60.5q0 -20 -9.5 -37t-40.5 -46q-31 -31 -46 -59q-13 -25 -13 -81zM462 50h-412v617h412v-617z
M512 718h-512v-718h512v718z" />
    <glyph glyph-name="commaaccent.alt" horiz-adv-x="240" 
d="M318 714l-21 -99h-96l18 86q9 43 35 62.5t69 24.5l-7 -33q-33 -8 -43 -41h45z" />
    <glyph glyph-name="caron.alt" 
d="M176 570l54 144h105l-89 -144h-70z" />
    <glyph glyph-name="grave.cap" 
d="M218 608l-76 144h120l30 -144h-74z" />
    <glyph glyph-name="acute.cap" 
d="M182 608l90 144h120l-136 -144h-74z" />
    <glyph glyph-name="circumflex.cap" 
d="M93 608l121 144h108l59 -144h-91l-36 88l-75 -88h-86z" />
    <glyph glyph-name="caron.cap" 
d="M182 608l-59 144h91l36 -88l75 88h86l-121 -144h-108z" />
    <glyph glyph-name="tilde.cap" 
d="M353 742h62q-7 -39 -39.5 -78.5t-71.5 -39.5q-24 0 -61 17.5t-51 17.5q-16 0 -27.5 -11.5t-15.5 -28.5h-62q7 41 41.5 80.5t84.5 39.5q10 0 50 -17q34 -18 52 -18q30 0 38 38z" />
    <glyph glyph-name="dieresis.cap" 
d="M110 626l23 108h96l-23 -108h-96zM276 626l23 108h96l-23 -108h-96z" />
    <glyph glyph-name="macron.cap" 
d="M118 711h282l-13 -62h-282z" />
    <glyph glyph-name="breve.cap" 
d="M132 748h62q-5 -22 10 -44.5t47 -22.5t56 22.5t29 44.5h62q-12 -58 -55.5 -96.5t-105.5 -38.5t-89.5 38.5t-15.5 96.5z" />
    <glyph glyph-name="ring.cap" 
d="M150 696q8 45 45.5 74.5t82.5 29.5t69 -29.5t15 -74.5q-11 -45 -47 -74.5t-81 -29.5t-69 29.5t-15 74.5zM200 696q-5 -23 8 -40t36 -17t43 17t25 40t-8.5 40t-36.5 17t-42.5 -16.5t-24.5 -40.5z" />
    <glyph glyph-name="hungarumlaut.cap" 
d="M262 608l90 144h120l-136 -144h-74zM62 608l90 144h120l-136 -144h-74z" />
    <glyph glyph-name="dotaccent.cap" 
d="M193 626l23 108h96l-23 -108h-96z" />
    </font>
</defs>
</svg>
